<svg width="100" height="100" viewBox="0 0 100 100" fill="none" xmlns="http://www.w3.org/2000/svg">
<rect width="100" height="100" rx="50" fill="#1C1D22"/>
<path d="M42.3118 37.2637C39.9202 37.2637 38.041 39.1428 38.041 41.5345C38.041 43.9262 39.9202 45.8053 42.3118 45.8053C44.7035 45.8053 46.5827 43.9262 46.5827 41.5345C46.5827 39.1428 44.7035 37.2637 42.3118 37.2637ZM57.6868 37.2637C55.2952 37.2637 53.416 39.1428 53.416 41.5345C53.416 43.9262 55.2952 45.8053 57.6868 45.8053C60.0785 45.8053 61.9577 43.9262 61.9577 41.5345C61.9577 39.1428 60.0785 37.2637 57.6868 37.2637ZM49.9993 27.8678C57.516 27.8678 63.666 34.0178 63.666 41.5345C63.666 49.0512 57.516 55.2012 49.9993 55.2012C42.4827 55.2012 36.3327 49.0512 36.3327 41.5345C36.3327 34.0178 42.4827 27.8678 49.9993 27.8678ZM49.9993 24.4512C40.6035 24.4512 32.916 32.1387 32.916 41.5345C32.916 50.9303 40.6035 58.6178 49.9993 58.6178C59.3952 58.6178 67.0827 50.9303 67.0827 41.5345C67.0827 32.1387 59.3952 24.4512 49.9993 24.4512ZM49.9993 29.5762C47.6077 29.5762 45.7285 31.4553 45.7285 33.847C45.7285 36.2387 47.6077 38.1178 49.9993 38.1178C52.391 38.1178 54.2702 36.2387 54.2702 33.847C54.2702 31.4553 52.391 29.5762 49.9993 29.5762ZM52.5618 33.847C52.5618 34.1887 52.391 34.5303 52.2202 34.872L51.1952 33.847L52.2202 32.822C52.391 33.1637 52.5618 33.5053 52.5618 33.847ZM51.0243 31.6262L49.9993 32.6512L48.9743 31.6262C49.316 31.4553 49.6577 31.2845 49.9993 31.2845C50.341 31.2845 50.6827 31.4553 51.0243 31.6262ZM47.7785 34.872C47.6077 34.5303 47.4368 34.1887 47.4368 33.847C47.4368 33.5053 47.6077 33.1637 47.7785 32.822L48.8035 33.847L47.7785 34.872ZM48.9743 36.0678L49.9993 35.0428L51.0243 36.0678C50.6827 36.2387 50.341 36.4095 49.9993 36.4095C49.6577 36.4095 49.316 36.2387 48.9743 36.0678ZM49.9993 44.9512C47.6077 44.9512 45.7285 46.8303 45.7285 49.222C45.7285 51.6137 47.6077 53.4928 49.9993 53.4928C52.391 53.4928 54.2702 51.6137 54.2702 49.222C54.2702 46.8303 52.391 44.9512 49.9993 44.9512ZM52.5618 49.222C52.5618 49.5637 52.391 49.9053 52.2202 50.247L51.1952 49.222L52.2202 48.197C52.391 48.5387 52.5618 48.8803 52.5618 49.222ZM51.0243 47.0012L49.9993 48.0262L48.9743 47.0012C49.316 46.8303 49.6577 46.6595 49.9993 46.6595C50.341 46.6595 50.6827 46.8303 51.0243 47.0012ZM47.7785 50.247C47.6077 49.9053 47.4368 49.5637 47.4368 49.222C47.4368 48.8803 47.6077 48.5387 47.7785 48.197L48.8035 49.222L47.7785 50.247ZM48.9743 51.4428L49.9993 50.4178L51.0243 51.4428C50.6827 51.6137 50.341 51.7845 49.9993 51.7845C49.6577 51.7845 49.316 51.6137 48.9743 51.4428Z" fill="#9E7F30"/>
<path d="M32.4883 72.3091H31.4373C31.3968 72.0846 31.3216 71.8869 31.2116 71.7162C31.1015 71.5455 30.9668 71.4007 30.8073 71.2816C30.6478 71.1626 30.4693 71.0728 30.2717 71.0121C30.0763 70.9515 29.8685 70.9212 29.6484 70.9212C29.2509 70.9212 28.8949 71.0211 28.5805 71.221C28.2683 71.4209 28.0213 71.714 27.8394 72.1003C27.6597 72.4866 27.5699 72.9582 27.5699 73.5152C27.5699 74.0766 27.6597 74.5505 27.8394 74.9368C28.0213 75.3231 28.2695 75.6151 28.5839 75.8127C28.8983 76.0103 29.252 76.1092 29.6451 76.1092C29.8629 76.1092 30.0695 76.08 30.2649 76.0216C30.4626 75.9609 30.6411 75.8722 30.8006 75.7554C30.96 75.6387 31.0948 75.496 31.2048 75.3276C31.3171 75.1569 31.3946 74.9615 31.4373 74.7414L32.4883 74.7448C32.4322 75.0839 32.3233 75.3961 32.1616 75.6813C32.0021 75.9643 31.7966 76.2091 31.5451 76.4157C31.2958 76.6201 31.0106 76.7784 30.6894 76.8907C30.3682 77.003 30.0179 77.0592 29.6383 77.0592C29.0409 77.0592 28.5086 76.9177 28.0415 76.6347C27.5744 76.3495 27.206 75.9418 26.9365 75.4118C26.6693 74.8818 26.5356 74.2496 26.5356 73.5152C26.5356 72.7785 26.6704 72.1463 26.9399 71.6185C27.2094 71.0885 27.5777 70.682 28.0449 70.399C28.512 70.1138 29.0432 69.9712 29.6383 69.9712C30.0044 69.9712 30.3458 70.024 30.6624 70.1295C30.9814 70.2328 31.2677 70.3855 31.5215 70.5877C31.7753 70.7876 31.9853 71.0324 32.1515 71.3221C32.3177 71.6095 32.4299 71.9386 32.4883 72.3091ZM33.734 76.9648V70.0655H34.7749V73.0638H38.2145V70.0655H39.2588V76.9648H38.2145V73.9565H34.7749V76.9648H33.734ZM41.3576 76.9648H40.2526L42.7354 70.0655H43.9381L46.4209 76.9648H45.316L43.3654 71.3187H43.3115L41.3576 76.9648ZM41.5429 74.2631H45.1273V75.1389H41.5429V74.2631ZM49.1901 77.0659C48.7724 77.0659 48.3995 76.9592 48.0716 76.7459C47.746 76.5303 47.49 76.2237 47.3036 75.8262C47.1194 75.4264 47.0273 74.9469 47.0273 74.3877C47.0273 73.8285 47.1205 73.3501 47.3069 72.9526C47.4956 72.5551 47.7539 72.2507 48.0818 72.0396C48.4097 71.8285 48.7813 71.723 49.1968 71.723C49.518 71.723 49.7763 71.7769 49.9717 71.8847C50.1693 71.9902 50.322 72.1137 50.4298 72.2552C50.5399 72.3967 50.6252 72.5214 50.6858 72.6292H50.7465V70.0655H51.7538V76.9648H50.7701V76.1597H50.6858C50.6252 76.2697 50.5376 76.3955 50.4231 76.537C50.3108 76.6785 50.1558 76.802 49.9582 76.9076C49.7605 77.0131 49.5045 77.0659 49.1901 77.0659ZM49.4124 76.2069C49.7022 76.2069 49.947 76.1305 50.1468 75.9778C50.349 75.8228 50.5017 75.6083 50.605 75.3343C50.7106 75.0603 50.7633 74.7414 50.7633 74.3776C50.7633 74.0183 50.7117 73.7038 50.6084 73.4343C50.5051 73.1648 50.3535 72.9548 50.1536 72.8044C49.9537 72.6539 49.7066 72.5786 49.4124 72.5786C49.1092 72.5786 48.8566 72.6572 48.6545 72.8145C48.4523 72.9717 48.2996 73.1862 48.1963 73.4579C48.0952 73.7297 48.0447 74.0362 48.0447 74.3776C48.0447 74.7235 48.0964 75.0345 48.1997 75.3108C48.303 75.587 48.4557 75.806 48.6578 75.9677C48.8622 76.1271 49.1137 76.2069 49.4124 76.2069ZM55.4216 77.0693C54.9117 77.0693 54.4727 76.9604 54.1044 76.7425C53.7383 76.5224 53.4553 76.2136 53.2554 75.8161C53.0578 75.4163 52.959 74.948 52.959 74.4113C52.959 73.8813 53.0578 73.4141 53.2554 73.0099C53.4553 72.6056 53.7338 72.29 54.0909 72.0632C54.4502 71.8364 54.8702 71.723 55.3508 71.723C55.6428 71.723 55.9258 71.7713 56.1998 71.8678C56.4738 71.9644 56.7197 72.116 56.9375 72.3226C57.1554 72.5292 57.3272 72.7976 57.453 73.1278C57.5787 73.4557 57.6416 73.8543 57.6416 74.3237V74.6808H53.5283V73.9262H56.6546C56.6546 73.6612 56.6006 73.4265 56.4928 73.2221C56.385 73.0155 56.2334 72.8526 56.0381 72.7336C55.8449 72.6146 55.6181 72.5551 55.3576 72.5551C55.0746 72.5551 54.8275 72.6247 54.6164 72.7639C54.4075 72.9009 54.2458 73.0806 54.1313 73.3029C54.019 73.523 53.9629 73.7622 53.9629 74.0205V74.61C53.9629 74.9559 54.0235 75.2501 54.1448 75.4927C54.2683 75.7352 54.4401 75.9205 54.6602 76.0485C54.8803 76.1743 55.1375 76.2372 55.4317 76.2372C55.6226 76.2372 55.7966 76.2102 55.9538 76.1563C56.111 76.1002 56.2469 76.0171 56.3615 75.907C56.476 75.797 56.5636 75.6611 56.6242 75.4994L57.5776 75.6712C57.5012 75.952 57.3642 76.1979 57.1666 76.409C56.9712 76.6179 56.7253 76.7807 56.4288 76.8975C56.1346 77.012 55.7989 77.0693 55.4216 77.0693ZM58.8401 70.0655H60.1034L62.2998 75.4287H62.3807L64.5772 70.0655H65.8405V76.9648H64.85V71.9723H64.786L62.7513 76.9547H61.9293L59.8945 71.9689H59.8305V76.9648H58.8401V70.0655ZM73.347 73.5152C73.347 74.2518 73.2123 74.8852 72.9428 75.4152C72.6733 75.943 72.3038 76.3495 71.8344 76.6347C71.3673 76.9177 70.8361 77.0592 70.241 77.0592C69.6436 77.0592 69.1102 76.9177 68.6408 76.6347C68.1737 76.3495 67.8053 75.9418 67.5358 75.4118C67.2663 74.8818 67.1316 74.2496 67.1316 73.5152C67.1316 72.7785 67.2663 72.1463 67.5358 71.6185C67.8053 71.0885 68.1737 70.682 68.6408 70.399C69.1102 70.1138 69.6436 69.9712 70.241 69.9712C70.8361 69.9712 71.3673 70.1138 71.8344 70.399C72.3038 70.682 72.6733 71.0885 72.9428 71.6185C73.2123 72.1463 73.347 72.7785 73.347 73.5152ZM72.3162 73.5152C72.3162 72.9537 72.2252 72.4809 72.0433 72.0969C71.8636 71.7106 71.6166 71.4186 71.3022 71.221C70.99 71.0211 70.6363 70.9212 70.241 70.9212C69.8435 70.9212 69.4886 71.0211 69.1764 71.221C68.8643 71.4186 68.6172 71.7106 68.4353 72.0969C68.2556 72.4809 68.1658 72.9537 68.1658 73.5152C68.1658 74.0766 68.2556 74.5505 68.4353 74.9368C68.6172 75.3209 68.8643 75.6128 69.1764 75.8127C69.4886 76.0103 69.8435 76.1092 70.241 76.1092C70.6363 76.1092 70.99 76.0103 71.3022 75.8127C71.6166 75.6128 71.8636 75.3209 72.0433 74.9368C72.2252 74.5505 72.3162 74.0766 72.3162 73.5152Z" fill="#B5B8C5"/>
</svg>
