<svg width="22" height="20" viewBox="0 0 22 20" fill="#B5B8C5" xmlns="http://www.w3.org/2000/svg">
<path d="M11 19.8C10.6883 19.8 10.4273 19.6944 10.2168 19.4832C10.0056 19.2727 9.9 19.0117 9.9 18.7C9.9 18.3883 10.0056 18.1273 10.2168 17.9168C10.4273 17.7056 10.6883 17.6 11 17.6H18.7V9.79C18.7 8.72667 18.4983 7.7275 18.095 6.7925C17.6917 5.8575 17.1417 5.04167 16.445 4.345C15.7483 3.64833 14.9325 3.09833 13.9975 2.695C13.0625 2.29167 12.0633 2.09 11 2.09C9.93667 2.09 8.9375 2.29167 8.0025 2.695C7.0675 3.09833 6.25167 3.64833 5.555 4.345C4.85833 5.04167 4.30833 5.8575 3.905 6.7925C3.50167 7.7275 3.3 8.72667 3.3 9.79V15.4C3.3 15.7117 3.19477 15.9727 2.9843 16.1832C2.7731 16.3944 2.51167 16.5 2.2 16.5C1.595 16.5 1.07727 16.2848 0.6468 15.8543C0.2156 15.4231 0 14.905 0 14.3V12.1C0 11.6783 0.100833 11.3069 0.3025 10.9857C0.504167 10.6652 0.77 10.4042 1.1 10.2025L1.1825 8.745C1.3475 7.40667 1.7281 6.19667 2.3243 5.115C2.91977 4.03333 3.66227 3.11667 4.5518 2.365C5.4406 1.61333 6.43977 1.03107 7.5493 0.6182C8.6581 0.206067 9.80833 0 11 0C12.21 0 13.3698 0.206067 14.4793 0.6182C15.5881 1.03107 16.5825 1.61773 17.4625 2.3782C18.3425 3.1394 19.0806 4.05607 19.6768 5.1282C20.2723 6.20107 20.6525 7.3975 20.8175 8.7175L20.9 10.1475C21.23 10.3125 21.4958 10.5552 21.6975 10.8757C21.8992 11.1969 22 11.55 22 11.935V14.465C22 14.8683 21.8992 15.2258 21.6975 15.5375C21.4958 15.8492 21.23 16.0875 20.9 16.2525V17.6C20.9 18.205 20.6848 18.7231 20.2543 19.1543C19.8231 19.5848 19.305 19.8 18.7 19.8H11ZM7.7 12.1C7.38833 12.1 7.12727 11.9944 6.9168 11.7832C6.7056 11.5727 6.6 11.3117 6.6 11C6.6 10.6883 6.7056 10.4269 6.9168 10.2157C7.12727 10.0052 7.38833 9.9 7.7 9.9C8.01167 9.9 8.2731 10.0052 8.4843 10.2157C8.69477 10.4269 8.8 10.6883 8.8 11C8.8 11.3117 8.69477 11.5727 8.4843 11.7832C8.2731 11.9944 8.01167 12.1 7.7 12.1ZM14.3 12.1C13.9883 12.1 13.7273 11.9944 13.5168 11.7832C13.3056 11.5727 13.2 11.3117 13.2 11C13.2 10.6883 13.3056 10.4269 13.5168 10.2157C13.7273 10.0052 13.9883 9.9 14.3 9.9C14.6117 9.9 14.8731 10.0052 15.0843 10.2157C15.2948 10.4269 15.4 10.6883 15.4 11C15.4 11.3117 15.2948 11.5727 15.0843 11.7832C14.8731 11.9944 14.6117 12.1 14.3 12.1ZM4.4275 10.395C4.35417 9.31333 4.5056 8.3325 4.8818 7.4525C5.25727 6.5725 5.76107 5.82523 6.3932 5.2107C7.02607 4.5969 7.755 4.125 8.58 3.795C9.405 3.465 10.23 3.3 11.055 3.3C12.7233 3.3 14.1673 3.82727 15.3868 4.8818C16.6056 5.9356 17.3433 7.25083 17.6 8.8275C15.8767 8.80917 14.3183 8.34607 12.925 7.4382C11.5317 6.53107 10.4775 5.35333 9.7625 3.905C9.46917 5.39 8.8506 6.70523 7.9068 7.8507C6.96227 8.9969 5.8025 9.845 4.4275 10.395Z" />
</svg>
