<svg width="20" height="20" viewBox="0 0 20 20" fill="none" xmlns="http://www.w3.org/2000/svg">
<path d="M1.299 15.5966C1.731 16.9286 3.044 17.7786 4.445 17.7786H4.5C4.62853 18.406 4.96969 18.9697 5.46582 19.3745C5.96196 19.7794 6.58265 20.0005 7.223 20.0006C7.68 20.0006 8.107 19.8856 8.485 19.6876C8.64275 19.6011 8.77402 19.4734 8.86473 19.318C8.95545 19.1626 9.00221 18.9855 9 18.8056V1.02764C9.00202 0.798536 8.92507 0.57573 8.78211 0.396701C8.63914 0.217672 8.43887 0.0933451 8.215 0.0446366C7.71331 -0.0528078 7.19349 0.0178373 6.736 0.245637C5.992 0.601637 5.556 1.39664 5.556 2.22364V2.27864C4.99921 2.165 4.42097 2.22484 3.89925 2.45011C3.37754 2.67537 2.93746 3.05521 2.63837 3.5384C2.33928 4.02159 2.19557 4.58488 2.22661 5.1523C2.25766 5.71972 2.46198 6.26397 2.812 6.71164C2.02808 6.83446 1.31388 7.23342 0.798242 7.83652C0.282607 8.43962 -0.000500432 9.20716 6.6406e-07 10.0006C6.6406e-07 11.1786 0.611001 12.2116 1.533 12.8126C1.103 13.5836 0.962001 14.5586 1.299 15.5966ZM17.188 6.71164C17.538 6.26397 17.7423 5.71972 17.7734 5.1523C17.8044 4.58488 17.6607 4.02159 17.3616 3.5384C17.0625 3.05521 16.6225 2.67537 16.1007 2.45011C15.579 2.22484 15.0008 2.165 14.444 2.27864V2.22364C14.444 1.39764 14.007 0.601637 13.263 0.245637C12.8059 0.0177695 12.2864 -0.0528837 11.785 0.0446366C11.5612 0.0935169 11.3611 0.21789 11.2181 0.396881C11.0752 0.575871 10.9982 0.798584 11 1.02764V18.8046C11 19.1696 11.192 19.5166 11.516 19.6866C11.894 19.8856 12.32 20.0006 12.777 20.0006C13.4175 20.0005 14.0383 19.7792 14.5344 19.3741C15.0306 18.9691 15.3717 18.4051 15.5 17.7776H15.556C16.956 17.7776 18.27 16.9276 18.702 15.5956C19.039 14.5576 18.898 13.5826 18.468 12.8116C18.9377 12.5082 19.3239 12.092 19.5915 11.601C19.8591 11.11 19.9995 10.5598 20 10.0006C20.0005 9.20716 19.7174 8.43962 19.2018 7.83652C18.6861 7.23342 17.9719 6.83446 17.188 6.71164Z" fill="#B5B8C5"/>
</svg>
