<svg width="20" height="20" viewBox="0 0 20 20" fill="#B5B8C5" xmlns="http://www.w3.org/2000/svg">
<path d="M19.8903 8.32L19.1003 5.8C19.015 5.50876 18.8719 5.23767 18.6796 5.00292C18.4872 4.76817 18.2496 4.57456 17.9808 4.43364C17.712 4.29272 17.4176 4.20737 17.1152 4.1827C16.8127 4.15802 16.5083 4.19451 16.2203 4.29L15.8803 4.4C15.6139 4.48805 15.3302 4.51039 15.0534 4.46511C14.7765 4.41984 14.5147 4.3083 14.2903 4.14L14.1803 4.06C13.9613 3.89237 13.7847 3.67562 13.6649 3.42723C13.545 3.17884 13.4852 2.90575 13.4903 2.63V2.35C13.4951 1.72202 13.2506 1.11779 12.8103 0.67C12.6009 0.458452 12.3517 0.290362 12.0771 0.175383C11.8025 0.0604042 11.508 0.000802192 11.2103 0H8.66028C8.04846 0.00790627 7.46453 0.257192 7.03563 0.693583C6.60673 1.12997 6.36759 1.71813 6.37028 2.33V2.57C6.36932 2.86027 6.30323 3.14663 6.17689 3.40796C6.05055 3.6693 5.86717 3.89895 5.64028 4.08L5.51028 4.18C5.25962 4.36962 4.96645 4.49516 4.65624 4.5457C4.34602 4.59624 4.02816 4.57025 3.73028 4.47C3.45669 4.37533 3.16674 4.33715 2.87798 4.35777C2.58921 4.3784 2.30763 4.4574 2.05028 4.59C1.78233 4.72299 1.54462 4.90969 1.35194 5.1385C1.15926 5.36731 1.01573 5.63333 0.930279 5.92L0.110279 8.52C-0.0798789 9.1062 -0.0311126 9.74374 0.245988 10.2942C0.523089 10.8447 1.00615 11.2636 1.59028 11.46H1.75028C2.01974 11.561 2.26158 11.7241 2.45619 11.9361C2.65079 12.148 2.79266 12.4029 2.87028 12.68L2.93028 12.84C3.04176 13.1461 3.07903 13.4743 3.03905 13.7977C2.99907 14.121 2.88297 14.4302 2.70028 14.7C2.3305 15.2036 2.17452 15.8328 2.26628 16.4508C2.35805 17.0688 2.69012 17.6256 3.19028 18L5.26028 19.57C5.65223 19.855 6.12571 20.0058 6.61028 20C6.73997 20.0127 6.87059 20.0127 7.00028 20C7.30038 19.9419 7.5855 19.8233 7.83824 19.6514C8.09098 19.4794 8.30603 19.2578 8.47028 19L8.70028 18.67C8.86162 18.4386 9.0751 18.2483 9.3235 18.1145C9.5719 17.9808 9.84826 17.9073 10.1303 17.9C10.4258 17.8927 10.7184 17.9604 10.9807 18.0968C11.243 18.2332 11.4665 18.4339 11.6303 18.68L11.7503 18.85C11.9208 19.1037 12.1414 19.3199 12.3986 19.4852C12.6558 19.6504 12.9441 19.7613 13.2457 19.8109C13.5474 19.8606 13.856 19.848 14.1526 19.7739C14.4492 19.6997 14.7274 19.5657 14.9703 19.38L17.0003 17.86C17.4802 17.4872 17.7994 16.945 17.8924 16.3444C17.9854 15.7438 17.8451 15.1304 17.5003 14.63L17.2403 14.25C17.0839 14.0084 16.9816 13.736 16.9401 13.4512C16.8987 13.1664 16.9192 12.8761 17.0003 12.6C17.0829 12.3044 17.2362 12.0334 17.4471 11.8104C17.6579 11.5874 17.9198 11.4191 18.2103 11.32L18.4103 11.25C18.989 11.0492 19.4669 10.6312 19.7431 10.0845C20.0193 9.53769 20.0721 8.90496 19.8903 8.32ZM10.0003 13.5C9.30804 13.5 8.63136 13.2947 8.05578 12.9101C7.48021 12.5256 7.03161 11.9789 6.7667 11.3394C6.50179 10.6999 6.43248 9.99612 6.56753 9.31718C6.70258 8.63825 7.03592 8.01461 7.52541 7.52513C8.01489 7.03564 8.63853 6.7023 9.31746 6.56725C9.9964 6.4322 10.7001 6.50151 11.3397 6.76642C11.9792 7.03133 12.5258 7.47993 12.9104 8.0555C13.295 8.63108 13.5003 9.30777 13.5003 10C13.5003 10.9283 13.1315 11.8185 12.4752 12.4749C11.8188 13.1313 10.9285 13.5 10.0003 13.5Z" />
</svg>
