<svg width="25" height="24" viewBox="0 0 25 24" fill="none" xmlns="http://www.w3.org/2000/svg">
<g id="vuesax/linear/eye-slash">
<g id="eye-slash">
<path id="Vector" d="M15.0299 9.46992L9.96992 14.5299C9.31992 13.8799 8.91992 12.9899 8.91992 11.9999C8.91992 10.0199 10.5199 8.41992 12.4999 8.41992C13.4899 8.41992 14.3799 8.81992 15.0299 9.46992Z" stroke="#87898E" stroke-width="1.5" stroke-linecap="round" stroke-linejoin="round"/>
<path id="Vector_2" d="M18.3198 5.77047C16.5698 4.45047 14.5698 3.73047 12.4998 3.73047C8.96984 3.73047 5.67984 5.81047 3.38984 9.41047C2.48984 10.8205 2.48984 13.1905 3.38984 14.6005C4.17984 15.8405 5.09984 16.9105 6.09984 17.7705" stroke="#87898E" stroke-width="1.5" stroke-linecap="round" stroke-linejoin="round"/>
<path id="Vector_3" d="M8.91992 19.5297C10.0599 20.0097 11.2699 20.2697 12.4999 20.2697C16.0299 20.2697 19.3199 18.1897 21.6099 14.5897C22.5099 13.1797 22.5099 10.8097 21.6099 9.39969C21.2799 8.87969 20.9199 8.38969 20.5499 7.92969" stroke="#87898E" stroke-width="1.5" stroke-linecap="round" stroke-linejoin="round"/>
<path id="Vector_4" d="M16.0104 12.6992C15.7504 14.1092 14.6004 15.2592 13.1904 15.5192" stroke="#87898E" stroke-width="1.5" stroke-linecap="round" stroke-linejoin="round"/>
<path id="Vector_5" d="M9.97 14.5293L2.5 21.9993" stroke="#87898E" stroke-width="1.5" stroke-linecap="round" stroke-linejoin="round"/>
<path id="Vector_6" d="M22.5003 2L15.0303 9.47" stroke="#87898E" stroke-width="1.5" stroke-linecap="round" stroke-linejoin="round"/>
</g>
</g>
</svg>
