<svg width="52" height="52" viewBox="0 0 42 42" fill="none" xmlns="http://www.w3.org/2000/svg">
<path d="M13.3138 16.2637C10.9221 16.2637 9.04297 18.1428 9.04297 20.5345C9.04297 22.9262 10.9221 24.8053 13.3138 24.8053C15.7055 24.8053 17.5846 22.9262 17.5846 20.5345C17.5846 18.1428 15.7055 16.2637 13.3138 16.2637ZM28.6888 16.2637C26.2971 16.2637 24.418 18.1428 24.418 20.5345C24.418 22.9262 26.2971 24.8053 28.6888 24.8053C31.0805 24.8053 32.9596 22.9262 32.9596 20.5345C32.9596 18.1428 31.0805 16.2637 28.6888 16.2637ZM21.0013 6.86784C28.518 6.86784 34.668 13.0178 34.668 20.5345C34.668 28.0512 28.518 34.2012 21.0013 34.2012C13.4846 34.2012 7.33464 28.0512 7.33464 20.5345C7.33464 13.0178 13.4846 6.86784 21.0013 6.86784ZM21.0013 3.45117C11.6055 3.45117 3.91797 11.1387 3.91797 20.5345C3.91797 29.9303 11.6055 37.6178 21.0013 37.6178C30.3971 37.6178 38.0846 29.9303 38.0846 20.5345C38.0846 11.1387 30.3971 3.45117 21.0013 3.45117ZM21.0013 8.57617C18.6096 8.57617 16.7305 10.4553 16.7305 12.847C16.7305 15.2387 18.6096 17.1178 21.0013 17.1178C23.393 17.1178 25.2721 15.2387 25.2721 12.847C25.2721 10.4553 23.393 8.57617 21.0013 8.57617ZM23.5638 12.847C23.5638 13.1887 23.393 13.5303 23.2221 13.872L22.1971 12.847L23.2221 11.822C23.393 12.1637 23.5638 12.5053 23.5638 12.847ZM22.0263 10.6262L21.0013 11.6512L19.9763 10.6262C20.318 10.4553 20.6596 10.2845 21.0013 10.2845C21.343 10.2845 21.6846 10.4553 22.0263 10.6262ZM18.7805 13.872C18.6096 13.5303 18.4388 13.1887 18.4388 12.847C18.4388 12.5053 18.6096 12.1637 18.7805 11.822L19.8055 12.847L18.7805 13.872ZM19.9763 15.0678L21.0013 14.0428L22.0263 15.0678C21.6846 15.2387 21.343 15.4095 21.0013 15.4095C20.6596 15.4095 20.318 15.2387 19.9763 15.0678ZM21.0013 23.9512C18.6096 23.9512 16.7305 25.8303 16.7305 28.222C16.7305 30.6137 18.6096 32.4928 21.0013 32.4928C23.393 32.4928 25.2721 30.6137 25.2721 28.222C25.2721 25.8303 23.393 23.9512 21.0013 23.9512ZM23.5638 28.222C23.5638 28.5637 23.393 28.9053 23.2221 29.247L22.1971 28.222L23.2221 27.197C23.393 27.5387 23.5638 27.8803 23.5638 28.222ZM22.0263 26.0012L21.0013 27.0262L19.9763 26.0012C20.318 25.8303 20.6596 25.6595 21.0013 25.6595C21.343 25.6595 21.6846 25.8303 22.0263 26.0012ZM18.7805 29.247C18.6096 28.9053 18.4388 28.5637 18.4388 28.222C18.4388 27.8803 18.6096 27.5387 18.7805 27.197L19.8055 28.222L18.7805 29.247ZM19.9763 30.4428L21.0013 29.4178L22.0263 30.4428C21.6846 30.6137 21.343 30.7845 21.0013 30.7845C20.6596 30.7845 20.318 30.6137 19.9763 30.4428Z" fill="#55906E"/>
</svg>
