<svg width="21" height="22" viewBox="0 0 21 22" fill="none" xmlns="http://www.w3.org/2000/svg">
<path d="M10.5059 2.53125C5.80178 2.53125 1.97461 6.35842 1.97461 11.0625C1.97461 15.7666 5.80178 19.5938 10.5059 19.5938C15.2099 19.5938 19.0371 15.7666 19.0371 11.0625C19.0371 6.35842 15.2099 2.53125 10.5059 2.53125ZM15.4277 10.3558H11.7773L13.29 8.84314L13.0603 8.57613C12.6495 8.14962 12.1393 7.83156 11.5755 7.65038C11.0117 7.46921 10.4118 7.43058 9.82939 7.53794C9.24699 7.6453 8.70028 7.8953 8.23812 8.2656C7.77596 8.63589 7.41277 9.11494 7.18101 9.65992C6.94925 10.2049 6.85614 10.7988 6.91002 11.3886C6.9639 11.9783 7.16308 12.5455 7.48975 13.0395C7.81642 13.5334 8.26041 13.9387 8.78201 14.2192C9.30362 14.4996 9.88658 14.6464 10.4788 14.6464C11.2199 14.6458 11.9427 14.4158 12.548 13.988C13.1532 13.5602 13.6113 12.9557 13.8593 12.2573L14.0796 11.6367L15.317 12.0744L15.0996 12.6949C14.8005 13.5414 14.2744 14.2894 13.5789 14.8571C12.8834 15.4248 12.0453 15.7905 11.156 15.914C10.2668 16.0375 9.36066 15.9143 8.53675 15.5576C7.71283 15.201 7.00281 14.6247 6.48428 13.8918C5.96574 13.1589 5.65866 12.2976 5.59659 11.4019C5.53451 10.5063 5.71984 9.6108 6.13231 8.81337C6.54478 8.01594 7.16853 7.34724 7.93537 6.88035C8.70221 6.41347 9.58264 6.16637 10.4804 6.16605C11.143 6.16352 11.7991 6.29668 12.4083 6.55732C13.0175 6.81797 13.5668 7.20058 14.0225 7.68158L14.0455 7.70701L14.2223 7.91209L15.4277 6.70705V10.3558Z" fill="#828282"/>
</svg>
