<svg width="26" height="25" viewBox="0 0 26 25" fill="none" xmlns="http://www.w3.org/2000/svg">
<path d="M23.5972 5.2951L23.6155 5.27292L18.3957 1.04491L16.7515 3.07279L19.4488 5.25726C18.7797 5.66387 18.2484 6.26239 17.924 6.975C17.5995 7.68761 17.497 8.48134 17.6297 9.25299C17.8255 10.4261 18.6332 11.4401 19.6785 12.0077C20.8464 12.6432 21.8708 12.5845 22.7816 12.2609L22.7621 20.328C22.7636 20.5441 22.7113 20.7572 22.6098 20.9479C22.5083 21.1387 22.3609 21.3012 22.1808 21.4206C22.0007 21.5401 21.7937 21.6127 21.5785 21.632C21.3633 21.6513 21.1467 21.6167 20.9482 21.5312C20.7928 21.4647 20.6518 21.3685 20.5332 21.248C20.4126 21.1271 20.317 20.9837 20.2518 20.8258C20.1867 20.668 20.1532 20.4988 20.1535 20.328L20.1835 17.7182C20.1848 17.2045 20.0844 16.6957 19.8879 16.2211C19.6915 15.7465 19.403 15.3155 19.0391 14.953C18.6755 14.5886 18.2437 14.2996 17.7683 14.1023C17.293 13.905 16.7834 13.8034 16.2687 13.8033H14.9637V3.36379C14.9637 2.67161 14.6888 2.00777 14.1993 1.51832C13.7099 1.02888 13.046 0.753906 12.3539 0.753906H3.21926C2.52707 0.753906 1.86324 1.02888 1.37379 1.51832C0.884344 2.00777 0.609375 2.67161 0.609375 3.36379V21.633C0.609375 22.3252 0.884344 22.989 1.37379 23.4784C1.86324 23.9679 2.52707 24.2429 3.21926 24.2429H12.3539C13.046 24.2429 13.7099 23.9679 14.1993 23.4784C14.6888 22.989 14.9637 22.3252 14.9637 21.633V16.4132H16.2687C16.4461 16.4132 16.6171 16.4484 16.7789 16.515C17.0895 16.651 17.337 16.8995 17.4718 17.2105C17.5395 17.3712 17.5741 17.5438 17.5736 17.7182L17.5423 20.328C17.5423 20.8578 17.6454 21.3707 17.8503 21.8522C18.0473 22.3207 18.3305 22.7396 18.6867 23.0932C19.049 23.4593 19.4805 23.7495 19.9562 23.9469C20.4319 24.1443 20.9421 24.2449 21.4571 24.2429C21.9869 24.2429 22.4985 24.1411 22.9813 23.9349C23.4485 23.7392 23.8687 23.456 24.2223 23.0984C24.5876 22.7356 24.8773 22.304 25.0747 21.8284C25.272 21.3529 25.3731 20.8429 25.372 20.328L25.4033 8.58356C25.402 7.92798 25.2359 7.28325 24.9203 6.70863C24.6047 6.13401 24.1498 5.64794 23.5972 5.2951ZM5.82914 20.328L7.13408 13.8033H3.21926L9.74397 4.66873L8.43903 11.1934H12.3539L5.82914 20.328ZM21.4884 9.8885C21.1424 9.8885 20.8104 9.75101 20.5657 9.50629C20.321 9.26157 20.1835 8.92965 20.1835 8.58356C20.1835 8.23747 20.321 7.90555 20.5657 7.66082C20.8104 7.4161 21.1424 7.27862 21.4884 7.27862C21.8345 7.27862 22.1665 7.4161 22.4112 7.66082C22.6559 7.90555 22.7934 8.23747 22.7934 8.58356C22.7934 8.92965 22.6559 9.26157 22.4112 9.50629C22.1665 9.75101 21.8345 9.8885 21.4884 9.8885Z" fill="#26426E"/>
</svg>
