<svg width="100" height="100" viewBox="0 0 100 100" fill="none" xmlns="http://www.w3.org/2000/svg">
<rect width="100" height="100" rx="50" fill="#1C1D22"/>
<g clip-path="url(#clip0_67_9489)">
<path d="M42.3118 55.2018C42.3118 56.5685 41.116 57.7643 39.7493 57.7643C38.3827 57.7643 37.1868 56.5685 37.1868 55.2018C37.1868 53.8352 38.3827 52.6393 39.7493 52.6393C41.116 52.6393 42.3118 53.8352 42.3118 55.2018ZM60.2493 52.6393C58.8827 52.6393 57.6868 53.8352 57.6868 55.2018C57.6868 56.5685 58.8827 57.7643 60.2493 57.7643C61.616 57.7643 62.8118 56.5685 62.8118 55.2018C62.8118 53.8352 61.616 52.6393 60.2493 52.6393ZM67.0827 55.2018C67.0827 58.9602 64.0077 62.0352 60.2493 62.0352H39.7493C35.991 62.0352 32.916 58.9602 32.916 55.2018C32.916 51.4435 35.991 48.3685 39.7493 48.3685H40.2618C36.8452 45.6352 34.6243 41.1935 34.6243 36.4102C34.6243 27.8685 41.4577 21.0352 49.9993 21.0352C58.541 21.0352 65.3744 27.8685 65.3744 36.4102C65.3744 41.1935 63.1535 45.6352 59.7369 48.3685H60.2493C64.0077 48.3685 67.0827 51.4435 67.0827 55.2018ZM49.9993 48.3685C56.6618 48.3685 61.9577 43.0727 61.9577 36.4102C61.9577 29.7477 56.6618 24.4518 49.9993 24.4518C43.3368 24.4518 38.041 29.7477 38.041 36.4102C38.041 43.0727 43.3368 48.3685 49.9993 48.3685ZM63.666 55.2018C63.666 53.3227 62.1285 51.7852 60.2493 51.7852H39.7493C37.8702 51.7852 36.3327 53.3227 36.3327 55.2018C36.3327 57.081 37.8702 58.6185 39.7493 58.6185H60.2493C62.1285 58.6185 63.666 57.081 63.666 55.2018ZM51.5368 31.7977C51.5368 30.0893 52.9035 28.7227 54.6118 28.7227C56.3202 28.7227 57.6868 30.0893 57.6868 31.7977C57.6868 33.506 56.3202 34.8727 54.6118 34.8727C52.9035 34.8727 51.5368 33.506 51.5368 31.7977ZM42.3118 31.7977C42.3118 30.0893 43.6785 28.7227 45.3868 28.7227C47.0952 28.7227 48.4619 30.0893 48.4619 31.7977C48.4619 33.506 47.0952 34.8727 45.3868 34.8727C43.6785 34.8727 42.3118 33.506 42.3118 31.7977ZM45.3868 38.4602C45.3868 39.4852 44.5327 40.3393 43.5077 40.3393C42.4827 40.3393 41.6285 39.4852 41.6285 38.4602C41.6285 37.4352 42.3118 36.4102 43.3369 36.4102C44.5327 36.4102 45.3868 37.4352 45.3868 38.4602ZM53.0744 42.731C53.0744 44.4393 51.7077 45.806 49.9993 45.806C48.291 45.806 46.9243 44.4393 46.9243 42.731C46.9243 41.0227 48.291 39.656 49.9993 39.656C51.7077 39.656 53.0744 41.0227 53.0744 42.731ZM58.541 38.4602C58.541 39.4852 57.6868 40.3393 56.6618 40.3393C55.6368 40.3393 54.7827 39.4852 54.7827 38.4602C54.7827 37.4352 55.466 36.4102 56.6618 36.4102C57.6868 36.4102 58.541 37.4352 58.541 38.4602Z" fill="#55906E"/>
</g>
<path d="M36.4883 72.3091H35.4373C35.3968 72.0846 35.3216 71.8869 35.2116 71.7162C35.1015 71.5455 34.9668 71.4007 34.8073 71.2816C34.6478 71.1626 34.4693 71.0728 34.2717 71.0121C34.0763 70.9515 33.8685 70.9212 33.6484 70.9212C33.2509 70.9212 32.8949 71.0211 32.5805 71.221C32.2683 71.4209 32.0213 71.714 31.8394 72.1003C31.6597 72.4866 31.5699 72.9582 31.5699 73.5152C31.5699 74.0766 31.6597 74.5505 31.8394 74.9368C32.0213 75.3231 32.2695 75.6151 32.5839 75.8127C32.8983 76.0103 33.252 76.1092 33.6451 76.1092C33.8629 76.1092 34.0695 76.08 34.2649 76.0216C34.4626 75.9609 34.6411 75.8722 34.8006 75.7554C34.96 75.6387 35.0948 75.496 35.2048 75.3276C35.3171 75.1569 35.3946 74.9615 35.4373 74.7414L36.4883 74.7448C36.4322 75.0839 36.3233 75.3961 36.1616 75.6813C36.0021 75.9643 35.7966 76.2091 35.5451 76.4157C35.2958 76.6201 35.0106 76.7784 34.6894 76.8907C34.3682 77.003 34.0179 77.0592 33.6383 77.0592C33.0409 77.0592 32.5086 76.9177 32.0415 76.6347C31.5744 76.3495 31.206 75.9418 30.9365 75.4118C30.6693 74.8818 30.5356 74.2496 30.5356 73.5152C30.5356 72.7785 30.6704 72.1463 30.9399 71.6185C31.2094 71.0885 31.5777 70.682 32.0449 70.399C32.512 70.1138 33.0432 69.9712 33.6383 69.9712C34.0044 69.9712 34.3458 70.024 34.6624 70.1295C34.9814 70.2328 35.2677 70.3855 35.5215 70.5877C35.7753 70.7876 35.9853 71.0324 36.1515 71.3221C36.3177 71.6095 36.4299 71.9386 36.4883 72.3091ZM39.8327 77.0693C39.3476 77.0693 38.9243 76.9581 38.5627 76.7358C38.2011 76.5134 37.9204 76.2024 37.7205 75.8026C37.5206 75.4028 37.4207 74.9357 37.4207 74.4012C37.4207 73.8644 37.5206 73.395 37.7205 72.993C37.9204 72.591 38.2011 72.2788 38.5627 72.0565C38.9243 71.8341 39.3476 71.723 39.8327 71.723C40.3178 71.723 40.7412 71.8341 41.1028 72.0565C41.4644 72.2788 41.7451 72.591 41.945 72.993C42.1449 73.395 42.2448 73.8644 42.2448 74.4012C42.2448 74.9357 42.1449 75.4028 41.945 75.8026C41.7451 76.2024 41.4644 76.5134 41.1028 76.7358C40.7412 76.9581 40.3178 77.0693 39.8327 77.0693ZM39.8361 76.2237C40.1505 76.2237 40.411 76.1406 40.6177 75.9744C40.8243 75.8082 40.977 75.587 41.0758 75.3108C41.1769 75.0345 41.2274 74.7302 41.2274 74.3978C41.2274 74.0677 41.1769 73.7645 41.0758 73.4882C40.977 73.2097 40.8243 72.9863 40.6177 72.8178C40.411 72.6494 40.1505 72.5652 39.8361 72.5652C39.5194 72.5652 39.2567 72.6494 39.0478 72.8178C38.8412 72.9863 38.6873 73.2097 38.5863 73.4882C38.4875 73.7645 38.438 74.0677 38.438 74.3978C38.438 74.7302 38.4875 75.0345 38.5863 75.3108C38.6873 75.587 38.8412 75.8082 39.0478 75.9744C39.2567 76.1406 39.5194 76.2237 39.8361 76.2237ZM43.3692 76.9648V71.7903H44.336V72.6325H44.4C44.5078 72.3473 44.6841 72.125 44.9289 71.9655C45.1737 71.8038 45.4668 71.723 45.8082 71.723C46.154 71.723 46.4438 71.8038 46.6773 71.9655C46.9131 72.1272 47.0872 72.3496 47.1995 72.6325H47.2534C47.3769 72.3563 47.5734 72.1362 47.8429 71.9723C48.1124 71.8061 48.4336 71.723 48.8064 71.723C49.2758 71.723 49.6587 71.8701 49.9552 72.1643C50.2539 72.4585 50.4032 72.9021 50.4032 73.495V76.9648H49.396V73.5893C49.396 73.2389 49.3005 72.9851 49.1096 72.8279C48.9187 72.6707 48.6908 72.5921 48.4257 72.5921C48.0978 72.5921 47.8429 72.6932 47.661 72.8953C47.4791 73.0952 47.3881 73.3523 47.3881 73.6668V76.9648H46.3842V73.5253C46.3842 73.2445 46.2967 73.0188 46.1215 72.8481C45.9463 72.6775 45.7183 72.5921 45.4376 72.5921C45.2467 72.5921 45.0704 72.6427 44.9087 72.7437C44.7492 72.8425 44.6201 72.9807 44.5213 73.1581C44.4247 73.3355 44.3764 73.541 44.3764 73.7746V76.9648H43.3692ZM51.8341 76.9648V70.0655H52.8414V72.6292H52.9021C52.9605 72.5214 53.0447 72.3967 53.1547 72.2552C53.2648 72.1137 53.4175 71.9902 53.6129 71.8847C53.8083 71.7769 54.0665 71.723 54.3877 71.723C54.8054 71.723 55.1783 71.8285 55.5062 72.0396C55.8341 72.2507 56.0912 72.5551 56.2776 72.9526C56.4663 73.3501 56.5606 73.8285 56.5606 74.3877C56.5606 74.9469 56.4674 75.4264 56.281 75.8262C56.0946 76.2237 55.8385 76.5303 55.5129 76.7459C55.1872 76.9592 54.8155 77.0659 54.3978 77.0659C54.0834 77.0659 53.8262 77.0131 53.6264 76.9076C53.4287 76.802 53.2738 76.6785 53.1615 76.537C53.0492 76.3955 52.9627 76.2697 52.9021 76.1597H52.8178V76.9648H51.8341ZM52.8212 74.3776C52.8212 74.7414 52.874 75.0603 52.9795 75.3343C53.0851 75.6083 53.2378 75.8228 53.4377 75.9778C53.6376 76.1305 53.8824 76.2069 54.1721 76.2069C54.4731 76.2069 54.7246 76.1271 54.9267 75.9677C55.1288 75.806 55.2816 75.587 55.3849 75.3108C55.4904 75.0345 55.5432 74.7235 55.5432 74.3776C55.5432 74.0362 55.4916 73.7297 55.3882 73.4579C55.2872 73.1862 55.1345 72.9717 54.9301 72.8145C54.728 72.6572 54.4753 72.5786 54.1721 72.5786C53.8801 72.5786 53.6331 72.6539 53.431 72.8044C53.2311 72.9548 53.0795 73.1648 52.9762 73.4343C52.8729 73.7038 52.8212 74.0183 52.8212 74.3776ZM59.8713 77.0693C59.3862 77.0693 58.9628 76.9581 58.6013 76.7358C58.2397 76.5134 57.9589 76.2024 57.7591 75.8026C57.5592 75.4028 57.4592 74.9357 57.4592 74.4012C57.4592 73.8644 57.5592 73.395 57.7591 72.993C57.9589 72.591 58.2397 72.2788 58.6013 72.0565C58.9628 71.8341 59.3862 71.723 59.8713 71.723C60.3564 71.723 60.7798 71.8341 61.1413 72.0565C61.5029 72.2788 61.7837 72.591 61.9835 72.993C62.1834 73.395 62.2834 73.8644 62.2834 74.4012C62.2834 74.9357 62.1834 75.4028 61.9835 75.8026C61.7837 76.2024 61.5029 76.5134 61.1413 76.7358C60.7798 76.9581 60.3564 77.0693 59.8713 77.0693ZM59.8747 76.2237C60.1891 76.2237 60.4496 76.1406 60.6562 75.9744C60.8629 75.8082 61.0156 75.587 61.1144 75.3108C61.2155 75.0345 61.266 74.7302 61.266 74.3978C61.266 74.0677 61.2155 73.7645 61.1144 73.4882C61.0156 73.2097 60.8629 72.9863 60.6562 72.8178C60.4496 72.6494 60.1891 72.5652 59.8747 72.5652C59.558 72.5652 59.2952 72.6494 59.0864 72.8178C58.8797 72.9863 58.7259 73.2097 58.6248 73.4882C58.526 73.7645 58.4766 74.0677 58.4766 74.3978C58.4766 74.7302 58.526 75.0345 58.6248 75.3108C58.7259 75.587 58.8797 75.8082 59.0864 75.9744C59.2952 76.1406 59.558 76.2237 59.8747 76.2237ZM68.5224 70.0655V76.9648H67.4781V71.1098H67.4377L65.7869 72.1879V71.1907L67.5084 70.0655H68.5224Z" fill="#B5B8C5"/>
<defs>
<clipPath id="clip0_67_9489">
<rect width="41" height="41" fill="white" transform="translate(29.5 21.0352)"/>
</clipPath>
</defs>
</svg>
