<svg width="100" height="100" viewBox="0 0 100 100" fill="none" xmlns="http://www.w3.org/2000/svg">
<rect width="100" height="100" rx="50" fill="#1C1D22"/>
<path d="M59.0535 29.5768C61.9577 32.1393 63.666 35.7268 63.666 39.8268C63.666 47.3435 57.516 53.4935 49.9993 53.4935C42.4827 53.4935 36.3327 47.3435 36.3327 39.8268C36.3327 35.7268 38.2118 32.1393 40.9452 29.5768H59.0535ZM60.2493 26.1602H39.7493L38.7243 27.0143C34.966 30.2602 32.916 34.8727 32.916 39.8268C32.916 49.2227 40.6035 56.9102 49.9993 56.9102C59.3952 56.9102 67.0827 49.2227 67.0827 39.8268C67.0827 34.8727 65.0327 30.2602 61.2744 27.0143L60.2493 26.1602ZM51.7077 33.8477C51.7077 35.2143 52.9035 36.4102 54.2702 36.4102C55.6369 36.4102 56.8327 35.2143 56.8327 33.8477C56.8327 32.481 55.6369 31.2852 54.2702 31.2852C52.9035 31.2852 51.7077 32.481 51.7077 33.8477ZM43.166 33.8477C43.166 35.2143 44.3618 36.4102 45.7285 36.4102C47.0952 36.4102 48.291 35.2143 48.291 33.8477C48.291 32.481 47.0952 31.2852 45.7285 31.2852C44.3618 31.2852 43.166 32.481 43.166 33.8477ZM41.4577 43.2435C43.3368 43.2435 44.8743 41.706 44.8743 39.8268C44.8743 37.9477 43.3368 36.4102 41.4577 36.4102C39.5785 36.4102 38.041 37.9477 38.041 39.8268C38.041 41.706 39.5785 43.2435 41.4577 43.2435ZM49.1452 46.6602C49.1452 44.781 47.6077 43.2435 45.7285 43.2435C43.8493 43.2435 42.3118 44.781 42.3118 46.6602C42.3118 48.5393 43.8493 50.0768 45.7285 50.0768C47.6077 50.0768 49.1452 48.5393 49.1452 46.6602ZM49.9993 43.2435C51.8785 43.2435 53.416 41.706 53.416 39.8268C53.416 37.9477 51.8785 36.4102 49.9993 36.4102C48.1202 36.4102 46.5827 37.9477 46.5827 39.8268C46.5827 41.706 48.1202 43.2435 49.9993 43.2435ZM57.6868 46.6602C57.6868 44.781 56.1493 43.2435 54.2702 43.2435C52.391 43.2435 50.8535 44.781 50.8535 46.6602C50.8535 48.5393 52.391 50.0768 54.2702 50.0768C56.1493 50.0768 57.6868 48.5393 57.6868 46.6602ZM61.9577 39.8268C61.9577 37.9477 60.4202 36.4102 58.541 36.4102C56.6618 36.4102 55.1243 37.9477 55.1243 39.8268C55.1243 41.706 56.6618 43.2435 58.541 43.2435C60.4202 43.2435 61.9577 41.706 61.9577 39.8268Z" fill="#55906E"/>
<path d="M45.4272 72.2451C45.362 72.0408 45.2744 71.8577 45.1644 71.696C45.0566 71.5321 44.9275 71.3928 44.777 71.2783C44.6265 71.1615 44.4547 71.0728 44.2616 71.0121C44.0707 70.9515 43.8607 70.9212 43.6316 70.9212C43.243 70.9212 42.8927 71.0211 42.5805 71.221C42.2683 71.4209 42.0213 71.714 41.8394 72.1003C41.6597 72.4843 41.5699 72.9548 41.5699 73.5118C41.5699 74.071 41.6608 74.5438 41.8427 74.9301C42.0247 75.3164 42.274 75.6095 42.5906 75.8093C42.9073 76.0092 43.2678 76.1092 43.672 76.1092C44.0471 76.1092 44.3738 76.0328 44.6523 75.8801C44.9331 75.7274 45.1498 75.5118 45.3025 75.2333C45.4575 74.9525 45.535 74.6224 45.535 74.2428L45.8045 74.2934H43.8303V73.4343H46.5422V74.2193C46.5422 74.7987 46.4187 75.3018 46.1717 75.7285C45.9269 76.153 45.5877 76.4809 45.1543 76.7122C44.7231 76.9435 44.229 77.0592 43.672 77.0592C43.0477 77.0592 42.4997 76.9154 42.028 76.628C41.5586 76.3405 41.1926 75.9329 40.9298 75.4051C40.667 74.8751 40.5356 74.2462 40.5356 73.5185C40.5356 72.9683 40.612 72.4742 40.7647 72.0363C40.9174 71.5983 41.1319 71.2266 41.4082 70.9212C41.6867 70.6135 42.0134 70.3788 42.3885 70.2171C42.7658 70.0532 43.1779 69.9712 43.6248 69.9712C43.9977 69.9712 44.3447 70.0262 44.6658 70.1363C44.9892 70.2463 45.2767 70.4024 45.5282 70.6045C45.782 70.8066 45.992 71.047 46.1582 71.3254C46.3244 71.6017 46.4367 71.9082 46.4951 72.2451H45.4272ZM47.8637 76.9648V70.0655H50.3903C50.8799 70.0655 51.2853 70.1464 51.6064 70.3081C51.9276 70.4675 52.1679 70.6842 52.3273 70.9582C52.4868 71.23 52.5665 71.5366 52.5665 71.8779C52.5665 72.1654 52.5138 72.408 52.4082 72.6056C52.3026 72.801 52.1611 72.9582 51.9837 73.0772C51.8085 73.194 51.6154 73.2794 51.4043 73.3333V73.4006C51.6334 73.4119 51.8568 73.486 52.0747 73.623C52.2948 73.7577 52.4767 73.9498 52.6204 74.199C52.7642 74.4483 52.836 74.7515 52.836 75.1086C52.836 75.4612 52.7529 75.7779 52.5867 76.0586C52.4228 76.3371 52.169 76.5583 51.8254 76.7223C51.4818 76.884 51.0427 76.9648 50.5082 76.9648H47.8637ZM48.9046 76.0721H50.4071C50.9057 76.0721 51.2628 75.9755 51.4784 75.7824C51.694 75.5892 51.8018 75.3478 51.8018 75.0581C51.8018 74.8402 51.7468 74.6404 51.6367 74.4584C51.5267 74.2765 51.3695 74.1317 51.1651 74.0239C50.963 73.9161 50.7227 73.8622 50.4442 73.8622H48.9046V76.0721ZM48.9046 73.0503H50.2993C50.5329 73.0503 50.7429 73.0054 50.9293 72.9155C51.1179 72.8257 51.2673 72.6999 51.3773 72.5382C51.4896 72.3743 51.5458 72.1811 51.5458 71.9588C51.5458 71.6736 51.4458 71.4344 51.246 71.2412C51.0461 71.0481 50.7395 70.9515 50.3263 70.9515H48.9046V73.0503ZM53.7305 70.9616V70.0655H59.07V70.9616H56.9174V76.9648H55.8798V70.9616H53.7305Z" fill="#B5B8C5"/>
</svg>
