<svg width="100" height="100" viewBox="0 0 100 100" fill="none" xmlns="http://www.w3.org/2000/svg">
<rect width="100" height="100" rx="50" fill="#1C1D22"/>
<path d="M59.0535 29.5768C61.9577 32.1393 63.666 35.7268 63.666 39.8268C63.666 47.3435 57.516 53.4935 49.9993 53.4935C42.4827 53.4935 36.3327 47.3435 36.3327 39.8268C36.3327 35.7268 38.2118 32.1393 40.9452 29.5768H59.0535ZM60.2493 26.1602H39.7493L38.7243 27.0143C34.966 30.2602 32.916 34.8727 32.916 39.8268C32.916 49.2227 40.6035 56.9102 49.9993 56.9102C59.3952 56.9102 67.0827 49.2227 67.0827 39.8268C67.0827 34.8727 65.0327 30.2602 61.2744 27.0143L60.2493 26.1602ZM51.7077 33.8477C51.7077 35.2143 52.9035 36.4102 54.2702 36.4102C55.6369 36.4102 56.8327 35.2143 56.8327 33.8477C56.8327 32.481 55.6369 31.2852 54.2702 31.2852C52.9035 31.2852 51.7077 32.481 51.7077 33.8477ZM43.166 33.8477C43.166 35.2143 44.3618 36.4102 45.7285 36.4102C47.0952 36.4102 48.291 35.2143 48.291 33.8477C48.291 32.481 47.0952 31.2852 45.7285 31.2852C44.3618 31.2852 43.166 32.481 43.166 33.8477ZM41.4577 43.2435C43.3368 43.2435 44.8743 41.706 44.8743 39.8268C44.8743 37.9477 43.3368 36.4102 41.4577 36.4102C39.5785 36.4102 38.041 37.9477 38.041 39.8268C38.041 41.706 39.5785 43.2435 41.4577 43.2435ZM49.1452 46.6602C49.1452 44.781 47.6077 43.2435 45.7285 43.2435C43.8493 43.2435 42.3118 44.781 42.3118 46.6602C42.3118 48.5393 43.8493 50.0768 45.7285 50.0768C47.6077 50.0768 49.1452 48.5393 49.1452 46.6602ZM49.9993 43.2435C51.8785 43.2435 53.416 41.706 53.416 39.8268C53.416 37.9477 51.8785 36.4102 49.9993 36.4102C48.1202 36.4102 46.5827 37.9477 46.5827 39.8268C46.5827 41.706 48.1202 43.2435 49.9993 43.2435ZM57.6868 46.6602C57.6868 44.781 56.1494 43.2435 54.2702 43.2435C52.391 43.2435 50.8535 44.781 50.8535 46.6602C50.8535 48.5393 52.391 50.0768 54.2702 50.0768C56.1494 50.0768 57.6868 48.5393 57.6868 46.6602ZM61.9577 39.8268C61.9577 37.9477 60.4202 36.4102 58.541 36.4102C56.6618 36.4102 55.1243 37.9477 55.1243 39.8268C55.1243 41.706 56.6618 43.2435 58.541 43.2435C60.4202 43.2435 61.9577 41.706 61.9577 39.8268Z" fill="#787878"/>
<path d="M34.9177 70.9616V70.0655H40.2573V70.9616H38.1046V76.9648H37.067V70.9616H34.9177ZM41.4002 78.9053C41.2497 78.9053 41.1127 78.8929 40.9892 78.8682C40.8657 78.8458 40.7736 78.8211 40.7129 78.7941L40.9555 77.9688C41.1397 78.0182 41.3036 78.0395 41.4473 78.0328C41.5911 78.026 41.718 77.9721 41.828 77.8711C41.9403 77.77 42.0391 77.6049 42.1245 77.3758L42.2491 77.0322L40.3558 71.7903H41.4339L42.7443 75.806H42.7982L44.1087 71.7903H45.1901L43.0576 77.6555C42.9588 77.925 42.833 78.1529 42.6803 78.3393C42.5276 78.528 42.3457 78.6695 42.1346 78.7638C41.9235 78.8581 41.6787 78.9053 41.4002 78.9053ZM46.1367 78.9053V71.7903H47.1204V72.6292H47.2047C47.263 72.5214 47.3473 72.3967 47.4573 72.2552C47.5674 72.1137 47.7201 71.9902 47.9155 71.8847C48.1109 71.7769 48.3691 71.723 48.6903 71.723C49.108 71.723 49.4808 71.8285 49.8087 72.0396C50.1366 72.2507 50.3938 72.5551 50.5802 72.9526C50.7689 73.3501 50.8632 73.8285 50.8632 74.3877C50.8632 74.9469 50.77 75.4264 50.5836 75.8262C50.3972 76.2237 50.1411 76.5303 49.8155 76.7459C49.4898 76.9592 49.1181 77.0659 48.7004 77.0659C48.386 77.0659 48.1288 77.0131 47.9289 76.9076C47.7313 76.802 47.5763 76.6785 47.4641 76.537C47.3518 76.3955 47.2653 76.2697 47.2047 76.1597H47.144V78.9053H46.1367ZM47.1238 74.3776C47.1238 74.7414 47.1766 75.0603 47.2821 75.3343C47.3877 75.6083 47.5404 75.8228 47.7403 75.9778C47.9402 76.1305 48.185 76.2069 48.4747 76.2069C48.7756 76.2069 49.0272 76.1271 49.2293 75.9677C49.4314 75.806 49.5842 75.587 49.6875 75.3108C49.793 75.0345 49.8458 74.7235 49.8458 74.3776C49.8458 74.0362 49.7941 73.7297 49.6908 73.4579C49.5898 73.1862 49.4371 72.9717 49.2327 72.8145C49.0306 72.6572 48.7779 72.5786 48.4747 72.5786C48.1827 72.5786 47.9357 72.6539 47.7336 72.8044C47.5337 72.9548 47.3821 73.1648 47.2788 73.4343C47.1755 73.7038 47.1238 74.0183 47.1238 74.3776ZM54.2219 77.0693C53.7121 77.0693 53.273 76.9604 52.9047 76.7425C52.5386 76.5224 52.2556 76.2136 52.0557 75.8161C51.8581 75.4163 51.7593 74.948 51.7593 74.4113C51.7593 73.8813 51.8581 73.4141 52.0557 73.0099C52.2556 72.6056 52.5341 72.29 52.8912 72.0632C53.2506 71.8364 53.6705 71.723 54.1512 71.723C54.4431 71.723 54.7261 71.7713 55.0001 71.8678C55.2741 71.9644 55.52 72.116 55.7379 72.3226C55.9557 72.5292 56.1275 72.7976 56.2533 73.1278C56.3791 73.4557 56.4419 73.8543 56.4419 74.3237V74.6808H52.3286V73.9262H55.4549C55.4549 73.6612 55.401 73.4265 55.2932 73.2221C55.1854 73.0155 55.0338 72.8526 54.8384 72.7336C54.6452 72.6146 54.4184 72.5551 54.1579 72.5551C53.8749 72.5551 53.6279 72.6247 53.4167 72.7639C53.2079 72.9009 53.0462 73.0806 52.9316 73.3029C52.8193 73.523 52.7632 73.7622 52.7632 74.0205V74.61C52.7632 74.9559 52.8238 75.2501 52.9451 75.4927C53.0686 75.7352 53.2404 75.9205 53.4605 76.0485C53.6806 76.1743 53.9378 76.2372 54.232 76.2372C54.4229 76.2372 54.597 76.2102 54.7542 76.1563C54.9114 76.1002 55.0473 76.0171 55.1618 75.907C55.2763 75.797 55.3639 75.6611 55.4246 75.4994L56.3779 75.6712C56.3016 75.952 56.1646 76.1979 55.9669 76.409C55.7716 76.6179 55.5256 76.7807 55.2292 76.8975C54.935 77.012 54.5992 77.0693 54.2219 77.0693ZM60.0567 76.9648V76.2102L62.3913 73.7914C62.6406 73.5287 62.8461 73.2984 63.0078 73.1008C63.1717 72.9009 63.2941 72.7112 63.375 72.5315C63.4558 72.3518 63.4962 72.1609 63.4962 71.9588C63.4962 71.7297 63.4423 71.5321 63.3345 71.3659C63.2267 71.1974 63.0796 71.0683 62.8932 70.9785C62.7068 70.8864 62.4968 70.8403 62.2633 70.8403C62.0162 70.8403 61.8006 70.8909 61.6164 70.9919C61.4323 71.093 61.2908 71.2356 61.192 71.4198C61.0932 71.6039 61.0438 71.8195 61.0438 72.0666H60.0499C60.0499 71.6466 60.1465 71.2794 60.3397 70.965C60.5328 70.6506 60.7978 70.4069 61.1347 70.2339C61.4716 70.0588 61.8545 69.9712 62.2835 69.9712C62.7169 69.9712 63.0987 70.0576 63.4289 70.2306C63.7613 70.4013 64.0207 70.6348 64.2071 70.9313C64.3935 71.2255 64.4867 71.5579 64.4867 71.9285C64.4867 72.1845 64.4384 72.4349 64.3418 72.6797C64.2475 72.9245 64.0824 73.1974 63.8466 73.4983C63.6108 73.797 63.2829 74.1597 62.8629 74.5865L61.4918 76.0216V76.0721H64.5979V76.9648H60.0567Z" fill="#B5B8C5"/>
</svg>
