<svg width="100" height="100" viewBox="0 0 100 100" fill="none" xmlns="http://www.w3.org/2000/svg">
<rect width="100" height="100" rx="50" fill="#1C1D22"/>
<path d="M51.7077 36.4095C51.7077 38.2887 53.2452 39.8262 55.1243 39.8262C57.0035 39.8262 58.541 38.2887 58.541 36.4095C58.541 34.5303 57.0035 32.9928 55.1243 32.9928C53.2452 32.9928 51.7077 34.5303 51.7077 36.4095ZM41.4577 36.4095C41.4577 38.2887 42.9952 39.8262 44.8743 39.8262C46.7535 39.8262 48.291 38.2887 48.291 36.4095C48.291 34.5303 46.7535 32.9928 44.8743 32.9928C42.9952 32.9928 41.4577 34.5303 41.4577 36.4095ZM44.8743 43.5845C44.8743 42.5595 43.8493 41.5345 42.8243 41.5345C41.7993 41.5345 40.7743 42.5595 40.7743 43.5845C40.7743 44.6095 41.7993 45.6345 42.8243 45.6345C43.8493 45.6345 44.8743 44.7803 44.8743 43.5845ZM53.416 48.3678C53.416 46.4887 51.8785 44.9512 49.9993 44.9512C48.1202 44.9512 46.5827 46.4887 46.5827 48.3678C46.5827 50.247 48.1202 51.7845 49.9993 51.7845C51.8785 51.7845 53.416 50.247 53.416 48.3678ZM49.9993 27.8678C57.516 27.8678 63.666 34.0178 63.666 41.5345C63.666 49.0512 57.516 55.2012 49.9993 55.2012C42.4827 55.2012 36.3327 49.0512 36.3327 41.5345C36.3327 34.0178 42.4827 27.8678 49.9993 27.8678ZM49.9993 24.4512C40.6035 24.4512 32.916 32.1387 32.916 41.5345C32.916 50.9303 40.6035 58.6178 49.9993 58.6178C59.3952 58.6178 67.0827 50.9303 67.0827 41.5345C67.0827 32.1387 59.3952 24.4512 49.9993 24.4512ZM59.3952 43.5845C59.3952 42.3887 58.3702 41.5345 57.3452 41.5345C56.1493 41.5345 55.2952 42.5595 55.2952 43.5845C55.2952 44.6095 56.3202 45.6345 57.3452 45.6345C58.3702 45.8053 59.3952 44.7803 59.3952 43.5845Z" fill="#55906E"/>
<path d="M35.4177 70.9616V70.0655H40.7573V70.9616H38.6046V76.9648H37.567V70.9616H35.4177ZM41.9002 78.9053C41.7497 78.9053 41.6127 78.8929 41.4892 78.8682C41.3657 78.8458 41.2736 78.8211 41.2129 78.7941L41.4555 77.9688C41.6397 78.0182 41.8036 78.0395 41.9473 78.0328C42.0911 78.026 42.218 77.9721 42.328 77.8711C42.4403 77.77 42.5391 77.6049 42.6245 77.3758L42.7491 77.0322L40.8558 71.7903H41.9339L43.2443 75.806H43.2982L44.6087 71.7903H45.6901L43.5576 77.6555C43.4588 77.925 43.333 78.1529 43.1803 78.3393C43.0276 78.528 42.8457 78.6695 42.6346 78.7638C42.4235 78.8581 42.1787 78.9053 41.9002 78.9053ZM46.6367 78.9053V71.7903H47.6204V72.6292H47.7047C47.763 72.5214 47.8473 72.3967 47.9573 72.2552C48.0674 72.1137 48.2201 71.9902 48.4155 71.8847C48.6109 71.7769 48.8691 71.723 49.1903 71.723C49.608 71.723 49.9808 71.8285 50.3087 72.0396C50.6366 72.2507 50.8938 72.5551 51.0802 72.9526C51.2689 73.3501 51.3632 73.8285 51.3632 74.3877C51.3632 74.9469 51.27 75.4264 51.0836 75.8262C50.8972 76.2237 50.6411 76.5303 50.3155 76.7459C49.9898 76.9592 49.6181 77.0659 49.2004 77.0659C48.886 77.0659 48.6288 77.0131 48.4289 76.9076C48.2313 76.802 48.0763 76.6785 47.9641 76.537C47.8518 76.3955 47.7653 76.2697 47.7047 76.1597H47.644V78.9053H46.6367ZM47.6238 74.3776C47.6238 74.7414 47.6766 75.0603 47.7821 75.3343C47.8877 75.6083 48.0404 75.8228 48.2403 75.9778C48.4402 76.1305 48.685 76.2069 48.9747 76.2069C49.2756 76.2069 49.5272 76.1271 49.7293 75.9677C49.9314 75.806 50.0842 75.587 50.1875 75.3108C50.293 75.0345 50.3458 74.7235 50.3458 74.3776C50.3458 74.0362 50.2941 73.7297 50.1908 73.4579C50.0898 73.1862 49.9371 72.9717 49.7327 72.8145C49.5306 72.6572 49.2779 72.5786 48.9747 72.5786C48.6827 72.5786 48.4357 72.6539 48.2336 72.8044C48.0337 72.9548 47.8821 73.1648 47.7788 73.4343C47.6755 73.7038 47.6238 74.0183 47.6238 74.3776ZM54.7219 77.0693C54.2121 77.0693 53.773 76.9604 53.4047 76.7425C53.0386 76.5224 52.7556 76.2136 52.5557 75.8161C52.3581 75.4163 52.2593 74.948 52.2593 74.4113C52.2593 73.8813 52.3581 73.4141 52.5557 73.0099C52.7556 72.6056 53.0341 72.29 53.3912 72.0632C53.7506 71.8364 54.1705 71.723 54.6512 71.723C54.9431 71.723 55.2261 71.7713 55.5001 71.8678C55.7741 71.9644 56.02 72.116 56.2379 72.3226C56.4557 72.5292 56.6275 72.7976 56.7533 73.1278C56.8791 73.4557 56.9419 73.8543 56.9419 74.3237V74.6808H52.8286V73.9262H55.9549C55.9549 73.6612 55.901 73.4265 55.7932 73.2221C55.6854 73.0155 55.5338 72.8526 55.3384 72.7336C55.1452 72.6146 54.9184 72.5551 54.6579 72.5551C54.3749 72.5551 54.1279 72.6247 53.9167 72.7639C53.7079 72.9009 53.5462 73.0806 53.4316 73.3029C53.3193 73.523 53.2632 73.7622 53.2632 74.0205V74.61C53.2632 74.9559 53.3238 75.2501 53.4451 75.4927C53.5686 75.7352 53.7404 75.9205 53.9605 76.0485C54.1806 76.1743 54.4378 76.2372 54.732 76.2372C54.9229 76.2372 55.097 76.2102 55.2542 76.1563C55.4114 76.1002 55.5473 76.0171 55.6618 75.907C55.7763 75.797 55.8639 75.6611 55.9246 75.4994L56.8779 75.6712C56.8016 75.952 56.6646 76.1979 56.4669 76.409C56.2716 76.6179 56.0256 76.7807 55.7292 76.8975C55.435 77.012 55.0992 77.0693 54.7219 77.0693ZM63.1743 70.0655V76.9648H62.1299V71.1098H62.0895L60.4388 72.1879V71.1907L62.1602 70.0655H63.1743Z" fill="#B5B8C5"/>
</svg>
