<svg width="100" height="100" viewBox="0 0 100 100" fill="none" xmlns="http://www.w3.org/2000/svg">
<rect width="100" height="100" rx="50" fill="#1C1D22"/>
<path d="M46.5827 37.7762C46.5827 36.7512 45.5577 35.7262 44.5327 35.7262C43.5077 35.7262 42.4827 36.7512 42.4827 37.7762C42.4827 38.8012 43.5077 39.8262 44.5327 39.8262C45.5577 39.8262 46.5827 38.972 46.5827 37.7762ZM53.416 46.6595C53.416 44.7803 51.8785 43.2428 49.9993 43.2428C48.1202 43.2428 46.5827 44.7803 46.5827 46.6595C46.5827 48.5387 48.1202 50.0762 49.9993 50.0762C51.8785 50.0762 53.416 48.5387 53.416 46.6595ZM49.9993 27.8678C57.516 27.8678 63.666 34.0178 63.666 41.5345C63.666 49.0512 57.516 55.2012 49.9993 55.2012C42.4827 55.2012 36.3327 49.0512 36.3327 41.5345C36.3327 34.0178 42.4827 27.8678 49.9993 27.8678ZM49.9993 24.4512C40.6035 24.4512 32.916 32.1387 32.916 41.5345C32.916 50.9303 40.6035 58.6178 49.9993 58.6178C59.3952 58.6178 67.0827 50.9303 67.0827 41.5345C67.0827 32.1387 59.3952 24.4512 49.9993 24.4512ZM56.6618 37.7762C56.6618 36.5803 55.6368 35.7262 54.6118 35.7262C53.416 35.7262 52.5618 36.7512 52.5618 37.7762C52.5618 38.8012 53.5868 39.8262 54.6118 39.8262C55.6368 39.997 56.6618 38.972 56.6618 37.7762Z" fill="#A43F3F"/>
<path d="M49.9993 56.0553C51.0243 56.0553 52.0494 56.9095 52.0494 58.1053C52.0494 59.3012 51.0243 60.3262 49.9993 60.1553C48.9743 60.1553 47.9494 59.1303 47.9494 58.1053C47.9494 57.0803 48.8035 56.0553 49.9993 56.0553Z" fill="#A43F3F"/>
<path d="M27.2989 70.0655V76.9648H26.258V70.0655H27.2989ZM28.8149 76.9648V70.0655H33.1405V70.9616H29.8559V73.0638H32.9148V73.9565H29.8559V76.0687H33.1809V76.9648H28.8149ZM40.2613 72.3091H39.2102C39.1698 72.0846 39.0946 71.8869 38.9845 71.7162C38.8745 71.5455 38.7397 71.4007 38.5803 71.2816C38.4208 71.1626 38.2423 71.0728 38.0446 71.0121C37.8492 70.9515 37.6415 70.9212 37.4214 70.9212C37.0239 70.9212 36.6679 71.0211 36.3535 71.221C36.0413 71.4209 35.7943 71.714 35.6123 72.1003C35.4327 72.4866 35.3428 72.9582 35.3428 73.5152C35.3428 74.0766 35.4327 74.5505 35.6123 74.9368C35.7943 75.3231 36.0424 75.6151 36.3569 75.8127C36.6713 76.0103 37.025 76.1092 37.418 76.1092C37.6359 76.1092 37.8425 76.08 38.0379 76.0216C38.2355 75.9609 38.4141 75.8722 38.5735 75.7554C38.733 75.6387 38.8677 75.496 38.9778 75.3276C39.0901 75.1569 39.1676 74.9615 39.2102 74.7414L40.2613 74.7448C40.2052 75.0839 40.0962 75.3961 39.9345 75.6813C39.7751 75.9643 39.5696 76.2091 39.318 76.4157C39.0688 76.6201 38.7835 76.7784 38.4624 76.8907C38.1412 77.003 37.7908 77.0592 37.4113 77.0592C36.8139 77.0592 36.2816 76.9177 35.8145 76.6347C35.3473 76.3495 34.979 75.9418 34.7095 75.4118C34.4422 74.8818 34.3086 74.2496 34.3086 73.5152C34.3086 72.7785 34.4434 72.1463 34.7129 71.6185C34.9824 71.0885 35.3507 70.682 35.8178 70.399C36.285 70.1138 36.8161 69.9712 37.4113 69.9712C37.7774 69.9712 38.1187 70.024 38.4354 70.1295C38.7543 70.2328 39.0407 70.3855 39.2945 70.5877C39.5482 70.7876 39.7582 71.0324 39.9244 71.3221C40.0906 71.6095 40.2029 71.9386 40.2613 72.3091ZM46.3319 77.0592C46.0242 77.0547 45.721 76.9985 45.4223 76.8907C45.1259 76.7829 44.8564 76.6033 44.6138 76.3517C44.3713 76.1002 44.177 75.7622 44.031 75.3377C43.8873 74.9132 43.8154 74.3832 43.8154 73.7476C43.8154 73.1457 43.8749 72.6112 43.994 72.1441C44.1152 71.6769 44.2893 71.2828 44.5161 70.9616C44.743 70.6382 45.017 70.3923 45.3381 70.2238C45.6593 70.0554 46.0197 69.9712 46.4195 69.9712C46.8305 69.9712 47.1955 70.052 47.5144 70.2137C47.8333 70.3754 48.0916 70.5989 48.2892 70.8841C48.4891 71.1694 48.616 71.4939 48.6699 71.8577H47.6424C47.5728 71.5702 47.4346 71.3356 47.228 71.1536C47.0214 70.9717 46.7519 70.8808 46.4195 70.8808C45.9142 70.8808 45.52 71.1009 45.2371 71.541C44.9563 71.9812 44.8148 72.5932 44.8126 73.3771H44.8631C44.9822 73.1817 45.1281 73.0155 45.3011 72.8785C45.4762 72.7392 45.6716 72.6325 45.8872 72.5584C46.1051 72.4821 46.3342 72.4439 46.5745 72.4439C46.9742 72.4439 47.3358 72.5416 47.6592 72.737C47.9849 72.9301 48.2443 73.1974 48.4374 73.5388C48.6306 73.8801 48.7272 74.2709 48.7272 74.7111C48.7272 75.1513 48.6272 75.5499 48.4273 75.907C48.2297 76.2641 47.9512 76.5471 47.5919 76.756C47.2325 76.9626 46.8125 77.0637 46.3319 77.0592ZM46.3286 76.1833C46.5936 76.1833 46.8305 76.1181 47.0394 75.9879C47.2482 75.8576 47.4133 75.6824 47.5346 75.4624C47.6559 75.2423 47.7165 74.9963 47.7165 74.7246C47.7165 74.4596 47.657 74.2181 47.538 74.0003C47.4212 73.7824 47.2595 73.6095 47.0528 73.4815C46.8485 73.3535 46.6149 73.2895 46.3521 73.2895C46.1523 73.2895 45.967 73.3276 45.7963 73.404C45.6278 73.4804 45.4796 73.5859 45.3516 73.7207C45.2236 73.8554 45.1225 74.0104 45.0484 74.1856C44.9765 74.3585 44.9406 74.5415 44.9406 74.7347C44.9406 74.993 45.0001 75.2321 45.1191 75.4522C45.2404 75.6723 45.4055 75.8498 45.6144 75.9845C45.8255 76.117 46.0635 76.1833 46.3286 76.1833ZM52.3562 77.0794C51.8239 77.0771 51.3691 76.9368 50.9918 76.6583C50.6145 76.3798 50.3259 75.9744 50.1261 75.4421C49.9262 74.9099 49.8262 74.2687 49.8262 73.5185C49.8262 72.7707 49.9262 72.1317 50.1261 71.6017C50.3282 71.0717 50.6179 70.6674 50.9952 70.3889C51.3748 70.1104 51.8284 69.9712 52.3562 69.9712C52.884 69.9712 53.3365 70.1115 53.7138 70.3923C54.0911 70.6708 54.3797 71.075 54.5796 71.6051C54.7818 72.1328 54.8828 72.7707 54.8828 73.5185C54.8828 74.2709 54.7829 74.9132 54.583 75.4455C54.3831 75.9755 54.0945 76.3809 53.7172 76.6617C53.3399 76.9401 52.8862 77.0794 52.3562 77.0794ZM52.3562 76.1799C52.8234 76.1799 53.1883 75.952 53.4511 75.496C53.7161 75.0401 53.8486 74.381 53.8486 73.5185C53.8486 72.9458 53.788 72.4619 53.6667 72.0666C53.5476 71.6691 53.3758 71.3681 53.1512 71.1637C52.9289 70.9571 52.6639 70.8538 52.3562 70.8538C51.8913 70.8538 51.5264 71.0829 51.2613 71.541C50.9963 71.9992 50.8627 72.6584 50.8605 73.5185C50.8605 74.0935 50.92 74.5797 51.039 74.9772C51.1603 75.3725 51.3321 75.6723 51.5544 75.8767C51.7768 76.0788 52.044 76.1799 52.3562 76.1799ZM58.4799 77.0592C58.0172 77.0592 57.604 76.9794 57.2402 76.82C56.8786 76.6605 56.5922 76.4393 56.3811 76.1563C56.1722 75.8711 56.0599 75.541 56.0442 75.1659H57.102C57.1155 75.3703 57.184 75.5477 57.3075 75.6982C57.4333 75.8464 57.5972 75.9609 57.7994 76.0418C58.0015 76.1226 58.2261 76.1631 58.4731 76.1631C58.7449 76.1631 58.9852 76.1159 59.1941 76.0216C59.4052 75.9272 59.5702 75.7959 59.6893 75.6274C59.8083 75.4567 59.8678 75.2602 59.8678 75.0379C59.8678 74.8066 59.8083 74.6033 59.6893 74.4281C59.5725 74.2507 59.4007 74.1115 59.1739 74.0104C58.9493 73.9093 58.6775 73.8588 58.3586 73.8588H57.7758V73.0099H58.3586C58.6146 73.0099 58.8392 72.9638 59.0324 72.8717C59.2278 72.7796 59.3805 72.6516 59.4905 72.4877C59.6006 72.3215 59.6556 72.1272 59.6556 71.9049C59.6556 71.6915 59.6073 71.5062 59.5107 71.349C59.4164 71.1896 59.2817 71.0649 59.1065 70.9751C58.9335 70.8853 58.7292 70.8403 58.4934 70.8403C58.2688 70.8403 58.0588 70.8819 57.8634 70.965C57.6702 71.0458 57.513 71.1626 57.3917 71.3153C57.2705 71.4658 57.2053 71.6466 57.1964 71.8577H56.1891C56.2003 71.4849 56.3104 71.157 56.5192 70.874C56.7303 70.591 57.0088 70.3698 57.3547 70.2104C57.7006 70.0509 58.0846 69.9712 58.5068 69.9712C58.9493 69.9712 59.3311 70.0576 59.6522 70.2306C59.9756 70.4013 60.2249 70.6292 60.4001 70.9144C60.5775 71.1997 60.6651 71.5119 60.6629 71.851C60.6651 72.2373 60.5573 72.5652 60.3395 72.8347C60.1239 73.1042 59.8364 73.285 59.477 73.3771V73.431C59.9352 73.5006 60.2901 73.6825 60.5416 73.9767C60.7954 74.2709 60.9211 74.6359 60.9189 75.0716C60.9211 75.4511 60.8156 75.7914 60.6022 76.0923C60.3911 76.3933 60.1025 76.6302 59.7364 76.8031C59.3704 76.9738 58.9515 77.0592 58.4799 77.0592ZM64.5943 77.0794C64.062 77.0771 63.6072 76.9368 63.2299 76.6583C62.8526 76.3798 62.564 75.9744 62.3641 75.4421C62.1642 74.9099 62.0643 74.2687 62.0643 73.5185C62.0643 72.7707 62.1642 72.1317 62.3641 71.6017C62.5663 71.0717 62.856 70.6674 63.2333 70.3889C63.6128 70.1104 64.0665 69.9712 64.5943 69.9712C65.1221 69.9712 65.5746 70.1115 65.9519 70.3923C66.3292 70.6708 66.6178 71.075 66.8177 71.6051C67.0198 72.1328 67.1209 72.7707 67.1209 73.5185C67.1209 74.2709 67.021 74.9132 66.8211 75.4455C66.6212 75.9755 66.3326 76.3809 65.9553 76.6617C65.578 76.9401 65.1243 77.0794 64.5943 77.0794ZM64.5943 76.1799C65.0614 76.1799 65.4264 75.952 65.6891 75.496C65.9542 75.0401 66.0867 74.381 66.0867 73.5185C66.0867 72.9458 66.026 72.4619 65.9047 72.0666C65.7857 71.6691 65.6139 71.3681 65.3893 71.1637C65.167 70.9571 64.902 70.8538 64.5943 70.8538C64.1294 70.8538 63.7644 71.0829 63.4994 71.541C63.2344 71.9992 63.1008 72.6584 63.0985 73.5185C63.0985 74.0935 63.158 74.5797 63.2771 74.9772C63.3983 75.3725 63.5702 75.6723 63.7925 75.8767C64.0148 76.0788 64.2821 76.1799 64.5943 76.1799ZM70.6101 69.9712C70.9178 69.9734 71.221 70.0296 71.5197 70.1396C71.8184 70.2497 72.0879 70.4293 72.3282 70.6786C72.5708 70.9279 72.7639 71.2648 72.9077 71.6893C73.0537 72.1115 73.1278 72.637 73.13 73.2659C73.13 73.87 73.0694 74.4079 72.9481 74.8795C72.8268 75.3489 72.6528 75.7453 72.4259 76.0687C72.2013 76.3921 71.9285 76.6381 71.6073 76.8065C71.2862 76.975 70.9246 77.0592 70.5226 77.0592C70.1116 77.0592 69.7466 76.9783 69.4277 76.8166C69.1088 76.6549 68.8494 76.4314 68.6495 76.1462C68.4496 75.8587 68.325 75.5286 68.2756 75.1558H69.303C69.3704 75.4522 69.5074 75.6926 69.714 75.8767C69.9229 76.0586 70.1924 76.1496 70.5226 76.1496C71.0279 76.1496 71.422 75.9295 71.705 75.4893C71.988 75.0469 72.1306 74.4292 72.1328 73.6365H72.0789C71.9622 73.8296 71.8162 73.9958 71.641 74.135C71.4681 74.2743 71.2738 74.3821 71.0582 74.4584C70.8426 74.5348 70.6124 74.573 70.3676 74.573C69.9701 74.573 69.6085 74.4753 69.2828 74.2799C68.9572 74.0845 68.6978 73.8161 68.5046 73.4747C68.3115 73.1334 68.2149 72.7437 68.2149 72.3058C68.2149 71.8701 68.3137 71.4748 68.5114 71.1199C68.7113 70.7651 68.9897 70.4844 69.3468 70.2777C69.7062 70.0689 70.1273 69.9667 70.6101 69.9712ZM70.6135 70.8471C70.3507 70.8471 70.1138 70.9122 69.9027 71.0425C69.6938 71.1705 69.5288 71.3445 69.4075 71.5646C69.2862 71.7825 69.2256 72.025 69.2256 72.2923C69.2256 72.5596 69.284 72.8021 69.4007 73.02C69.5198 73.2356 69.6815 73.4074 69.8858 73.5354C70.0925 73.6612 70.3283 73.724 70.5933 73.724C70.7909 73.724 70.9751 73.6859 71.1458 73.6095C71.3165 73.5331 71.4658 73.4276 71.5938 73.2928C71.7219 73.1558 71.8218 73.0009 71.8937 72.8279C71.9655 72.655 72.0015 72.4731 72.0015 72.2822C72.0015 72.0284 71.9408 71.7926 71.8195 71.5747C71.7005 71.3569 71.5366 71.1817 71.3277 71.0492C71.1188 70.9144 70.8808 70.8471 70.6135 70.8471Z" fill="#B5B8C5"/>
</svg>
