<svg width="100" height="100" viewBox="0 0 100 100" fill="none" xmlns="http://www.w3.org/2000/svg">
<rect width="100" height="100" rx="50" fill="#1C1D22"/>
<path d="M42.0764 53.6132C42.0764 54.9936 40.8439 56.2015 39.4353 56.2015C38.0268 56.2015 36.7943 54.9936 36.7943 53.6132C36.7943 52.2329 38.0268 51.025 39.4353 51.025C40.8439 51.025 42.0764 52.2329 42.0764 53.6132ZM60.5636 51.025C59.1551 51.025 57.9226 52.2329 57.9226 53.6132C57.9226 54.9936 59.1551 56.2015 60.5636 56.2015C61.9722 56.2015 63.2046 54.9936 63.2046 53.6132C63.2046 52.2329 61.9722 51.025 60.5636 51.025ZM60.5636 46.7113H60.0354C63.5568 43.9506 65.8457 39.4643 65.8457 34.633C65.8457 29.8017 63.5568 25.3154 60.0354 22.5547H39.9635C36.4422 25.3154 34.1533 29.8017 34.1533 34.633C34.1533 39.4643 36.4422 43.9506 39.9635 46.7113H39.4353C35.5618 46.7113 32.3926 49.8172 32.3926 53.6132C32.3926 57.4093 35.5618 60.5152 39.4353 60.5152H60.5636C64.4371 60.5152 67.6064 57.4093 67.6064 53.6132C67.6064 49.8172 64.4371 46.7113 60.5636 46.7113ZM37.6746 34.633C37.6746 31.3546 39.0832 28.2488 41.3721 26.0056H58.6269C60.9157 28.2488 62.3243 31.3546 62.3243 34.633C62.3243 41.3624 56.8662 46.7113 49.9995 46.7113C43.1328 46.7113 37.6746 41.3624 37.6746 34.633ZM60.5636 57.0642H39.4353C37.4986 57.0642 35.914 55.5113 35.914 53.6132C35.914 51.7152 37.4986 50.1623 39.4353 50.1623H60.5636C62.5004 50.1623 64.085 51.7152 64.085 53.6132C64.085 55.5113 62.5004 57.0642 60.5636 57.0642ZM51.5841 29.9742C51.5841 31.1821 52.6405 32.2174 53.873 32.2174C55.1055 32.2174 56.1619 31.1821 56.1619 29.9742C56.1619 28.7664 55.1055 27.7311 53.6969 27.7311C52.4644 27.7311 51.5841 28.7664 51.5841 29.9742ZM44.0131 29.9742C44.0131 31.1821 45.0695 32.2174 46.302 32.2174C47.5345 32.2174 48.5909 31.1821 48.5909 29.9742C48.5909 28.7664 47.5345 27.7311 46.302 27.7311C44.8935 27.7311 44.0131 28.7664 44.0131 29.9742ZM42.4285 38.084C44.1892 38.084 45.4217 36.7036 45.4217 35.1507C45.4217 33.5977 44.0131 32.2174 42.4285 32.2174C40.8439 32.2174 39.4353 33.4252 39.4353 35.1507C39.4353 36.7036 40.8439 38.084 42.4285 38.084ZM49.2952 41.0173C49.2952 39.4643 47.8866 38.084 46.302 38.084C44.5413 38.084 43.3089 39.4643 43.3089 41.0173C43.3089 42.7428 44.7174 43.9506 46.302 43.9506C47.8866 43.9506 49.2952 42.7428 49.2952 41.0173ZM49.9995 38.084C51.7602 38.084 52.9926 36.7036 52.9926 35.1507C52.9926 33.5977 51.5841 32.2174 49.9995 32.2174C48.4149 32.2174 47.0063 33.5977 47.0063 35.1507C47.0063 36.7036 48.4149 38.084 49.9995 38.084ZM56.8662 41.0173C56.8662 39.4643 55.4576 38.084 53.873 38.084C52.1123 38.084 50.8798 39.4643 50.8798 41.0173C50.8798 42.7428 52.2884 43.9506 53.873 43.9506C55.4576 43.9506 56.8662 42.7428 56.8662 41.0173ZM60.5636 35.1507C60.5636 33.5977 59.1551 32.2174 57.5704 32.2174C55.8097 32.2174 54.5773 33.5977 54.5773 35.1507C54.5773 36.8761 55.9858 38.084 57.5704 38.084C59.1551 38.084 60.5636 36.7036 60.5636 35.1507Z" fill="#55916E"/>
<path d="M46.4883 72.5142H45.4373C45.3968 72.2896 45.3216 72.092 45.2116 71.9213C45.1015 71.7506 44.9668 71.6058 44.8073 71.4867C44.6478 71.3677 44.4693 71.2779 44.2717 71.2172C44.0763 71.1566 43.8685 71.1263 43.6484 71.1263C43.2509 71.1263 42.8949 71.2262 42.5805 71.4261C42.2683 71.626 42.0213 71.9191 41.8394 72.3053C41.6597 72.6916 41.5699 73.1633 41.5699 73.7203C41.5699 74.2817 41.6597 74.7556 41.8394 75.1419C42.0213 75.5282 42.2695 75.8201 42.5839 76.0178C42.8983 76.2154 43.252 76.3142 43.6451 76.3142C43.8629 76.3142 44.0695 76.285 44.2649 76.2267C44.4626 76.166 44.6411 76.0773 44.8006 75.9605C44.96 75.8437 45.0948 75.7011 45.2048 75.5327C45.3171 75.362 45.3946 75.1666 45.4373 74.9465L46.4883 74.9499C46.4322 75.289 46.3233 75.6012 46.1616 75.8864C46.0021 76.1694 45.7966 76.4142 45.5451 76.6208C45.2958 76.8252 45.0106 76.9835 44.6894 77.0958C44.3682 77.2081 44.0179 77.2642 43.6383 77.2642C43.0409 77.2642 42.5086 77.1228 42.0415 76.8398C41.5744 76.5546 41.206 76.1469 40.9365 75.6169C40.6693 75.0869 40.5356 74.4547 40.5356 73.7203C40.5356 72.9836 40.6704 72.3514 40.9399 71.8236C41.2094 71.2936 41.5777 70.8871 42.0449 70.6041C42.512 70.3189 43.0432 70.1763 43.6383 70.1763C44.0044 70.1763 44.3458 70.229 44.6624 70.3346C44.9814 70.4379 45.2677 70.5906 45.5215 70.7928C45.7753 70.9926 45.9853 71.2374 46.1515 71.5272C46.3177 71.8146 46.4299 72.1436 46.4883 72.5142ZM51.4969 72.083C51.461 71.7641 51.3128 71.517 51.0522 71.3419C50.7917 71.1644 50.4638 71.0757 50.0686 71.0757C49.7856 71.0757 49.5408 71.1206 49.3341 71.2105C49.1275 71.2981 48.9669 71.4194 48.8524 71.5743C48.7401 71.727 48.684 71.9011 48.684 72.0965C48.684 72.2604 48.7221 72.4019 48.7985 72.521C48.8771 72.64 48.9793 72.7399 49.1051 72.8208C49.2331 72.8994 49.3701 72.9656 49.5161 73.0195C49.662 73.0712 49.8024 73.1139 49.9372 73.1476L50.6109 73.3227C50.831 73.3766 51.0567 73.4496 51.2881 73.5417C51.5194 73.6338 51.7339 73.7551 51.9315 73.9055C52.1291 74.056 52.2886 74.2424 52.4099 74.4648C52.5334 74.6871 52.5952 74.9532 52.5952 75.2632C52.5952 75.654 52.4941 76.0009 52.292 76.3041C52.0921 76.6073 51.8012 76.8465 51.4194 77.0217C51.0399 77.1969 50.5806 77.2845 50.0416 77.2845C49.525 77.2845 49.0781 77.2025 48.7008 77.0385C48.3235 76.8746 48.0282 76.6421 47.8148 76.3412C47.6015 76.038 47.4835 75.6787 47.4611 75.2632H48.5054C48.5256 75.5125 48.6065 75.7202 48.748 75.8864C48.8917 76.0504 49.0748 76.1728 49.2971 76.2536C49.5217 76.3322 49.7676 76.3715 50.0349 76.3715C50.3291 76.3715 50.5907 76.3255 50.8198 76.2334C51.0511 76.1391 51.233 76.0088 51.3655 75.8426C51.4981 75.6742 51.5643 75.4777 51.5643 75.2531C51.5643 75.0487 51.5059 74.8814 51.3891 74.7511C51.2746 74.6209 51.1185 74.513 50.9209 74.4277C50.7255 74.3424 50.5043 74.2671 50.2572 74.202L49.442 73.9797C48.8895 73.8292 48.4515 73.608 48.1281 73.316C47.807 73.024 47.6464 72.6377 47.6464 72.1571C47.6464 71.7596 47.7542 71.4126 47.9698 71.1162C48.1854 70.8197 48.4773 70.5895 48.8457 70.4256C49.214 70.2594 49.6295 70.1763 50.0921 70.1763C50.5593 70.1763 50.9714 70.2582 51.3285 70.4222C51.6878 70.5861 51.9708 70.8118 52.1774 71.0993C52.3841 71.3845 52.4919 71.7124 52.5008 72.083H51.4969ZM57.6021 72.083C57.5661 71.7641 57.4179 71.517 57.1574 71.3419C56.8969 71.1644 56.569 71.0757 56.1737 71.0757C55.8907 71.0757 55.6459 71.1206 55.4393 71.2105C55.2327 71.2981 55.0721 71.4194 54.9575 71.5743C54.8453 71.727 54.7891 71.9011 54.7891 72.0965C54.7891 72.2604 54.8273 72.4019 54.9036 72.521C54.9823 72.64 55.0844 72.7399 55.2102 72.8208C55.3382 72.8994 55.4752 72.9656 55.6212 73.0195C55.7672 73.0712 55.9076 73.1139 56.0423 73.1476L56.7161 73.3227C56.9362 73.3766 57.1619 73.4496 57.3932 73.5417C57.6245 73.6338 57.839 73.7551 58.0366 73.9055C58.2343 74.056 58.3937 74.2424 58.515 74.4648C58.6385 74.6871 58.7003 74.9532 58.7003 75.2632C58.7003 75.654 58.5992 76.0009 58.3971 76.3041C58.1972 76.6073 57.9064 76.8465 57.5246 77.0217C57.145 77.1969 56.6857 77.2845 56.1467 77.2845C55.6302 77.2845 55.1833 77.2025 54.806 77.0385C54.4286 76.8746 54.1333 76.6421 53.92 76.3412C53.7066 76.038 53.5887 75.6787 53.5662 75.2632H54.6106C54.6308 75.5125 54.7116 75.7202 54.8531 75.8864C54.9968 76.0504 55.1799 76.1728 55.4022 76.2536C55.6268 76.3322 55.8727 76.3715 56.14 76.3715C56.4342 76.3715 56.6959 76.3255 56.9249 76.2334C57.1563 76.1391 57.3382 76.0088 57.4707 75.8426C57.6032 75.6742 57.6694 75.4777 57.6694 75.2531C57.6694 75.0487 57.6111 74.8814 57.4943 74.7511C57.3797 74.6209 57.2236 74.513 57.026 74.4277C56.8306 74.3424 56.6094 74.2671 56.3623 74.202L55.5471 73.9797C54.9946 73.8292 54.5567 73.608 54.2333 73.316C53.9121 73.024 53.7515 72.6377 53.7515 72.1571C53.7515 71.7596 53.8593 71.4126 54.0749 71.1162C54.2905 70.8197 54.5825 70.5895 54.9508 70.4256C55.3191 70.2594 55.7346 70.1763 56.1973 70.1763C56.6644 70.1763 57.0765 70.2582 57.4336 70.4222C57.793 70.5861 58.0759 70.8118 58.2826 71.0993C58.4892 71.3845 58.597 71.7124 58.606 72.083H57.6021Z" fill="#B5B8C5"/>
</svg>
