<svg width="85" height="15" viewBox="0 0 85 15" fill="none" xmlns="http://www.w3.org/2000/svg">
<path d="M11.94 0.499999C12.9533 0.499999 13.8133 0.599999 14.52 0.799999C15.24 0.986666 15.82 1.29333 16.26 1.72C16.7133 2.13333 17.04 2.67333 17.24 3.34C17.44 4.00667 17.54 4.82 17.54 5.78V9.22C17.54 10.18 17.44 11 17.24 11.68C17.04 12.3467 16.7133 12.8933 16.26 13.32C15.82 13.7333 15.24 14.0333 14.52 14.22C13.8133 14.4067 12.9533 14.5 11.94 14.5H5.76C4.74667 14.5 3.88667 14.4067 3.18 14.22C2.47333 14.0333 1.89333 13.7333 1.44 13.32C1 12.8933 0.673333 12.3467 0.46 11.68C0.26 11 0.16 10.18 0.16 9.22V5.78C0.16 4.82 0.26 4.00667 0.46 3.34C0.673333 2.67333 1 2.13333 1.44 1.72C1.89333 1.29333 2.47333 0.986666 3.18 0.799999C3.88667 0.599999 4.74667 0.499999 5.76 0.499999H11.94ZM3.22 9C3.22 9.52 3.26 9.96 3.34 10.32C3.43333 10.6667 3.58 10.9467 3.78 11.16C3.98 11.36 4.24667 11.5067 4.58 11.6C4.92667 11.68 5.36 11.72 5.88 11.72H11.82C12.34 11.72 12.7667 11.68 13.1 11.6C13.4467 11.5067 13.72 11.36 13.92 11.16C14.12 10.9467 14.26 10.6667 14.34 10.32C14.4333 9.96 14.48 9.52 14.48 9V6C14.48 5.48 14.4333 5.04667 14.34 4.7C14.26 4.34 14.12 4.06 13.92 3.86C13.72 3.64667 13.4467 3.5 13.1 3.42C12.7667 3.32667 12.34 3.28 11.82 3.28H5.88C5.36 3.28 4.92667 3.32667 4.58 3.42C4.24667 3.5 3.98 3.64667 3.78 3.86C3.58 4.06 3.43333 4.34 3.34 4.7C3.26 5.04667 3.22 5.48 3.22 6V9ZM35.3016 0.499999C35.4882 0.499999 35.5882 0.566666 35.6016 0.699999C35.6282 0.819999 35.5949 0.926666 35.5016 1.02L29.3616 7.24L35.7816 13.98C35.8749 14.0733 35.9082 14.1867 35.8816 14.32C35.8682 14.44 35.7682 14.5 35.5816 14.5H32.8416C32.6816 14.5 32.5549 14.48 32.4616 14.44C32.3682 14.4 32.2816 14.3267 32.2016 14.22L27.2616 9.04L22.3016 14.22C22.2082 14.3267 22.1149 14.4 22.0216 14.44C21.9416 14.48 21.8149 14.5 21.6416 14.5H19.0416C18.8682 14.5 18.7682 14.44 18.7416 14.32C18.7282 14.1867 18.7682 14.0733 18.8616 13.98L25.4416 7.14L19.5016 1.02C19.4216 0.926666 19.3882 0.819999 19.4016 0.699999C19.4149 0.566666 19.5149 0.499999 19.7016 0.499999H22.4416C22.6016 0.499999 22.7282 0.526666 22.8216 0.579999C22.9149 0.619999 23.0016 0.686666 23.0816 0.779999L27.4416 5.42L32.0616 0.779999C32.1416 0.686666 32.2282 0.619999 32.3216 0.579999C32.4149 0.526666 32.5416 0.499999 32.7016 0.499999H35.3016ZM40.4541 0.499999C40.7474 0.499999 40.8941 0.646666 40.8941 0.939999V14.06C40.8941 14.3533 40.7474 14.5 40.4541 14.5H38.2941C37.9874 14.5 37.8341 14.3533 37.8341 14.06V0.939999C37.8341 0.646666 37.9874 0.499999 38.2941 0.499999H40.4541ZM46.4367 0.499999C46.7301 0.499999 46.8767 0.646666 46.8767 0.939999V8.92C46.8767 9.45333 46.9167 9.9 46.9967 10.26C47.0901 10.6067 47.2367 10.8867 47.4367 11.1C47.6367 11.3 47.9034 11.4467 48.2367 11.54C48.5834 11.62 49.0167 11.66 49.5367 11.66H55.0767C55.5967 11.66 56.0234 11.62 56.3567 11.54C56.7034 11.4467 56.9767 11.3 57.1767 11.1C57.3767 10.8867 57.5167 10.6067 57.5967 10.26C57.6767 9.9 57.7167 9.45333 57.7167 8.92V0.939999C57.7167 0.646666 57.8634 0.499999 58.1567 0.499999H60.3367C60.6301 0.499999 60.7767 0.646666 60.7767 0.939999V9.22C60.7767 10.18 60.6767 11 60.4767 11.68C60.2767 12.3467 59.9501 12.8933 59.4967 13.32C59.0567 13.7333 58.4767 14.0333 57.7567 14.22C57.0501 14.4067 56.1901 14.5 55.1767 14.5H49.4167C48.4034 14.5 47.5434 14.4067 46.8367 14.22C46.1301 14.0333 45.5501 13.7333 45.0967 13.32C44.6567 12.8933 44.3301 12.3467 44.1167 11.68C43.9167 11 43.8167 10.18 43.8167 9.22V0.939999C43.8167 0.646666 43.9701 0.499999 44.2767 0.499999H46.4367ZM67.648 0.499999C67.9413 0.499999 68.1946 0.519999 68.408 0.559999C68.6213 0.6 68.808 0.68 68.968 0.799999C69.128 0.906666 69.268 1.06 69.388 1.26C69.5213 1.44667 69.6546 1.7 69.788 2.02L73.948 11.62C74.0013 11.74 74.0946 11.8 74.228 11.8H74.468C74.6013 11.8 74.6946 11.74 74.748 11.62L78.908 2.02C79.0413 1.7 79.168 1.44667 79.288 1.26C79.4213 1.06 79.568 0.906666 79.728 0.799999C79.888 0.68 80.068 0.6 80.268 0.559999C80.4813 0.519999 80.7346 0.499999 81.028 0.499999H83.168C83.8613 0.499999 84.328 0.659999 84.568 0.979999C84.808 1.28667 84.928 1.82 84.928 2.58V14.06C84.928 14.3533 84.7746 14.5 84.468 14.5H82.428C82.1346 14.5 81.988 14.3533 81.988 14.06V3.62C81.988 3.48667 81.9346 3.42 81.828 3.42H81.648C81.5146 3.42 81.428 3.47333 81.388 3.58L77.348 12.54C77.188 12.9 77.0213 13.2067 76.848 13.46C76.688 13.7 76.508 13.9 76.308 14.06C76.1213 14.22 75.9013 14.3333 75.648 14.4C75.408 14.4667 75.1213 14.5 74.788 14.5H73.828C73.4946 14.5 73.2013 14.4667 72.948 14.4C72.708 14.3333 72.488 14.22 72.288 14.06C72.1013 13.9 71.9213 13.7 71.748 13.46C71.588 13.2067 71.428 12.9 71.268 12.54L67.228 3.58C67.188 3.47333 67.1013 3.42 66.968 3.42H66.788C66.6813 3.42 66.628 3.48667 66.628 3.62V14.06C66.628 14.3533 66.4813 14.5 66.188 14.5H64.148C63.8413 14.5 63.688 14.3533 63.688 14.06V2.58C63.688 1.82 63.808 1.28667 64.048 0.979999C64.288 0.659999 64.7613 0.499999 65.468 0.499999H67.648Z" fill="url(#paint0_linear_1507_13063)"/>
<defs>
<linearGradient id="paint0_linear_1507_13063" x1="3.1094" y1="-14.3625" x2="76.0519" y2="33.2038" gradientUnits="userSpaceOnUse">
<stop stop-color="#ED5DCD"/>
<stop offset="1" stop-color="#5F5DD7" stop-opacity="0.71"/>
</linearGradient>
</defs>
</svg>
